<?xml version="1.0" encoding="UTF-8"?>
<svg width="100px" height="100px" viewBox="0 0 100 100" version="1.1" xmlns="http://www.w3.org/2000/svg" xmlns:xlink="http://www.w3.org/1999/xlink">
    <title>􀱏</title>
    <g id="Symbols" stroke="none" stroke-width="1" fill="none" fill-rule="evenodd">
        <g id="payment-status/refunded-big" transform="translate(-25.000000, -24.000000)" fill="#B1003D" fill-rule="nonzero">
            <g id="􀱏" transform="translate(25.195312, 24.355469)">
                <path d="M49.8046875,99.609375 C77.0507812,99.609375 99.609375,77.0507812 99.609375,49.8046875 C99.609375,22.6074219 77.0019531,0 49.7558594,0 C22.5585938,0 0,22.6074219 0,49.8046875 C0,77.0507812 22.6074219,99.609375 49.8046875,99.609375 Z M74.7070312,55.3222656 C74.7070312,66.9433594 66.796875,74.5605469 54.9804688,74.5605469 L48.4375,74.5605469 C46.09375,74.5605469 44.53125,73.1445312 44.53125,70.9472656 C44.53125,68.7988281 46.0449219,67.2851562 48.3398438,67.2851562 L54.9804688,67.2851562 C62.4023438,67.2851562 67.4316406,62.5 67.4316406,55.3222656 C67.4316406,48.6328125 62.5,44.1894531 55.0292969,44.1894531 L40.7714844,44.1894531 L35.7910156,43.9453125 L38.0859375,45.6054688 L43.9941406,51.2695312 C44.7265625,52.0019531 45.1171875,52.9296875 45.1171875,53.9550781 C45.1171875,56.0546875 43.5546875,57.7148438 41.5527344,57.7148438 C40.4296875,57.7148438 39.5507812,57.3242188 38.8671875,56.640625 L26.0742188,43.5546875 C25.1464844,42.6757812 24.7558594,41.6015625 24.7558594,40.4785156 C24.7558594,39.4042969 25.1953125,38.28125 26.0742188,37.4023438 L38.8183594,24.4628906 C39.5507812,23.7304688 40.3808594,23.3398438 41.5039062,23.3398438 C43.6035156,23.3398438 45.1171875,25 45.1171875,27.0996094 C45.1171875,28.125 44.7265625,29.0527344 43.9941406,29.7363281 L39.0625,34.5214844 L35.7421875,37.109375 L40.7714844,36.9140625 L55.0292969,36.9140625 C66.8457031,36.9140625 74.7070312,44.2382812 74.7070312,55.3222656 Z" id="Shape"></path>
            </g>
        </g>
    </g>
</svg>