<?xml version="1.0" encoding="UTF-8"?>
<svg width="66px" height="45px" viewBox="0 0 66 45" version="1.1" xmlns="http://www.w3.org/2000/svg" xmlns:xlink="http://www.w3.org/1999/xlink">
    <title>DinersClub</title>
    <g id="DinersClub" stroke="none" stroke-width="1" fill="none" fill-rule="evenodd">
        <rect id="Rectangle" fill="#FFFFFF" fill-rule="nonzero" x="0" y="0" width="65.7692308" height="45" rx="5.5"></rect>
        <rect id="Rectangle" stroke="#F9F7F6" x="0" y="0" width="65.7692308" height="45" rx="5.5"></rect>
        <path d="M29.8816154,36.5385 L34.8740769,36.5385 C42.6671538,36.5385 48.8773846,30.3557308 49.1208462,22.7181923 L49.1208462,22.5970385 C48.9991154,14.8383462 42.6671538,8.53433077 34.8740769,8.65556538 L29.2727308,8.65556538 C21.8449615,8.89802308 16.0000385,15.2020385 16.2436154,22.7181923 C16.2436154,30.2344615 22.332,36.4172308 29.8816154,36.5385 Z M18.6789231,22.5969231 C18.6789231,16.293 23.9149615,11.0801538 30.2469231,11.0801538 C36.5787692,11.0801538 41.8148077,16.293 41.8148077,22.5969231 C41.8148077,28.9009615 36.5787692,34.1138077 30.2469231,34.1138077 C23.9149615,34.1138077 18.6789231,28.9009615 18.6789231,22.5969231 Z M32.0734615,30.3557308 L32.0734615,14.9595 C36.3353077,16.0505769 39.0141923,20.2936154 37.9182692,24.5366538 C37.1876538,27.4461923 34.9958077,29.6283462 32.0734615,30.3557308 Z M22.6973077,20.6573077 C21.6013846,24.9003462 24.1585385,29.2646538 28.4203846,30.3557308 L28.4203846,14.9595 C25.6197692,15.6868846 23.4279231,17.8690385 22.6973077,20.6573077 Z" id="Shape" fill="#0079BE"></path>
    </g>
</svg>