<svg xmlns="http://www.w3.org/2000/svg" width="19.922" height="20.166"><path d="M9.96 19.922c5.45 0 9.962-4.512 9.962-9.961C19.922 4.52 15.4 0 9.952 0 4.511 0 0 4.521 0 9.96c0 5.45 4.521 9.962 9.96 9.962Z" fill="#fff"/><path d="M14.941 11.065c0 2.324-1.582 3.847-3.945 3.847H9.687c-.468 0-.78-.283-.78-.723 0-.43.302-.732.761-.732h1.328c1.484 0 2.49-.957 2.49-2.393 0-1.337-.986-2.226-2.48-2.226H8.154l-.996-.049.46.332 1.18 1.133a.746.746 0 0 1 .225.537c0 .42-.312.752-.712.752a.728.728 0 0 1-.538-.215L5.215 8.711a.822.822 0 0 1-.264-.615c0-.215.088-.44.264-.616l2.549-2.587a.714.714 0 0 1 .537-.225c.42 0 .722.332.722.752a.71.71 0 0 1-.224.527l-.986.957-.665.518 1.006-.04h2.852c2.363 0 3.935 1.466 3.935 3.683Z" fill="#E34D59"/></svg>