<?xml version="1.0" encoding="UTF-8"?>
<svg width="51px" height="35px" viewBox="0 0 51 35" version="1.1" xmlns="http://www.w3.org/2000/svg" xmlns:xlink="http://www.w3.org/1999/xlink">
    <title>Visa</title>
    <g id="Visa" stroke="none" stroke-width="1" fill="none" fill-rule="evenodd">
        <rect id="Rectangle" fill="#FFFFFF" fill-rule="nonzero" x="0" y="0" width="50.9838998" height="34.8837209" rx="5.5"></rect>
        <rect id="Rectangle" stroke="#E0E2E8" x="0" y="0" width="50.9838998" height="34.8837209" rx="5.5"></rect>
        <path d="M15.5788014,23.1935599 L12.508229,23.1935599 L10.2056351,14.150805 C10.0963327,13.7348837 9.86431127,13.3670841 9.52298748,13.1938283 C8.67110912,12.758229 7.73244186,12.4116279 6.70841682,12.2367621 L6.70841682,11.8886404 L11.6548301,11.8886404 C12.3375671,11.8886404 12.8495528,12.4116279 12.9348837,13.0189624 L14.1296064,19.541771 L17.1986583,11.8886404 L20.1838998,11.8886404 L15.5788014,23.1935599 Z M21.8906082,23.1935599 L18.9906977,23.1935599 L21.3786225,11.8886404 L24.2785331,11.8886404 L21.8906082,23.1935599 Z M28.0302326,15.020483 C28.1155635,14.4115385 28.6276386,14.0634168 29.2249553,14.0634168 C30.1636852,13.9760286 31.186136,14.150805 32.0395349,14.5848837 L32.5515206,12.1508945 C31.6982111,11.8027728 30.7594812,11.627907 29.9076029,11.627907 C27.0931127,11.627907 25.0449911,13.1938283 25.0449911,15.3670841 C25.0449911,17.0203936 26.4957066,17.8884615 27.5197674,18.411449 C28.6276386,18.9329159 29.0542934,19.281127 28.9689624,19.8025939 C28.9689624,20.5847048 28.1155635,20.9329159 27.2637746,20.9329159 C26.2397138,20.9329159 25.2157424,20.6721825 24.2785331,20.2365832 L23.766458,22.672093 C24.7905188,23.1061717 25.89839,23.2809481 26.9224508,23.2809481 C30.0783542,23.3669052 32.0395349,21.8025045 32.0395349,19.4543828 C32.0395349,16.4974061 28.0302326,16.3241503 28.0302326,15.020483 Z M42.1884615,23.1935599 L39.8858676,11.8886404 L37.4127013,11.8886404 C36.9006261,11.8886404 36.3886404,12.2367621 36.2179785,12.758229 L31.9542039,23.1935599 L34.9394454,23.1935599 L35.5352415,21.541771 L39.20322,21.541771 L39.5445438,23.1935599 L42.1884615,23.1935599 Z M37.839356,14.9330054 L38.6912343,19.1936494 L36.3033095,19.1936494 L37.839356,14.9330054 Z" id="Shape" fill="#172B85"></path>
    </g>
</svg>