<?xml version="1.0" encoding="UTF-8"?>
<svg width="100px" height="101px" viewBox="0 0 100 101" version="1.1" xmlns="http://www.w3.org/2000/svg" xmlns:xlink="http://www.w3.org/1999/xlink">
    <title>􀐬</title>
    <g id="Symbols" stroke="none" stroke-width="1" fill="none" fill-rule="evenodd">
        <g id="payment-status/pending-big" transform="translate(-25.000000, -24.000000)" fill="#FF9100" fill-rule="nonzero">
            <g id="􀐬" transform="translate(25.195312, 24.941406)">
                <path d="M49.8046875,99.609375 C77.0507812,99.609375 99.609375,77.0019531 99.609375,49.8046875 C99.609375,22.5585938 77.0019531,0 49.7558594,0 C22.5585938,0 0,22.5585938 0,49.8046875 C0,77.0019531 22.6074219,99.609375 49.8046875,99.609375 Z M24.2675781,55.078125 C22.3144531,55.078125 20.8496094,53.6132812 20.8496094,51.6601562 C20.8496094,49.7558594 22.3144531,48.2910156 24.2675781,48.2910156 L46.3867188,48.2910156 L46.3867188,18.75 C46.3867188,16.8457031 47.8515625,15.3808594 49.7558594,15.3808594 C51.6601562,15.3808594 53.1738281,16.8457031 53.1738281,18.75 L53.1738281,51.6601562 C53.1738281,53.6132812 51.6601562,55.078125 49.7558594,55.078125 L24.2675781,55.078125 Z" id="Shape"></path>
            </g>
        </g>
    </g>
</svg>