<?xml version="1.0" encoding="UTF-8"?>
<svg width="24px" height="19px" viewBox="0 0 24 19" version="1.1" xmlns="http://www.w3.org/2000/svg" xmlns:xlink="http://www.w3.org/1999/xlink">
    <title>􀺿</title>
    <g id="Symbols" stroke="none" stroke-width="1" fill="none" fill-rule="evenodd">
        <g id="history" transform="translate(-26.000000, -197.000000)" fill="#0059FF" fill-rule="nonzero">
            <g id="􀺿" transform="translate(26.486328, 197.964844)">
                <path d="M3.06640625,17.9785156 L19.9609375,17.9785156 C22.0117188,17.9785156 23.0273438,16.9726562 23.0273438,14.9609375 L23.0273438,3.02734375 C23.0273438,1.015625 22.0117188,0 19.9609375,0 L3.06640625,0 C1.02539062,0 0,1.015625 0,3.02734375 L0,14.9609375 C0,16.9726562 1.02539062,17.9785156 3.06640625,17.9785156 Z M4.4140625,5.24414062 C3.91601562,5.24414062 3.48632812,4.8046875 3.48632812,4.30664062 C3.48632812,3.7890625 3.91601562,3.36914062 4.4140625,3.36914062 C4.94140625,3.36914062 5.36132812,3.77929688 5.36132812,4.30664062 C5.36132812,4.81445312 4.94140625,5.24414062 4.4140625,5.24414062 Z M7.45117188,4.921875 C7.08984375,4.921875 6.81640625,4.6484375 6.81640625,4.30664062 C6.81640625,3.9453125 7.09960938,3.66210938 7.45117188,3.66210938 L18.9648438,3.66210938 C19.3164062,3.66210938 19.5996094,3.9453125 19.5996094,4.30664062 C19.5996094,4.6484375 19.3261719,4.921875 18.9648438,4.921875 L7.45117188,4.921875 Z M4.4140625,8.3203125 C3.91601562,8.3203125 3.48632812,7.890625 3.48632812,7.3828125 C3.48632812,6.86523438 3.91601562,6.4453125 4.4140625,6.4453125 C4.94140625,6.4453125 5.36132812,6.85546875 5.36132812,7.3828125 C5.36132812,7.90039062 4.94140625,8.3203125 4.4140625,8.3203125 Z M7.45117188,8.0078125 C7.09960938,8.0078125 6.81640625,7.72460938 6.81640625,7.3828125 C6.81640625,7.04101562 7.09960938,6.74804688 7.45117188,6.74804688 L13.828125,6.74804688 C14.1699219,6.74804688 14.453125,7.04101562 14.453125,7.3828125 C14.453125,7.72460938 14.1699219,8.0078125 13.828125,8.0078125 L7.45117188,8.0078125 Z M4.4140625,11.3867188 C3.90625,11.3867188 3.48632812,10.9765625 3.48632812,10.4492188 C3.48632812,9.95117188 3.90625,9.52148438 4.4140625,9.52148438 C4.94140625,9.52148438 5.36132812,9.94140625 5.36132812,10.4492188 C5.36132812,10.9765625 4.94140625,11.3867188 4.4140625,11.3867188 Z M7.45117188,11.09375 C7.08984375,11.09375 6.81640625,10.8203125 6.81640625,10.4492188 C6.81640625,10.1074219 7.08984375,9.83398438 7.45117188,9.83398438 L18.9648438,9.83398438 C19.3261719,9.83398438 19.5996094,10.1074219 19.5996094,10.4492188 C19.5996094,10.8203125 19.3261719,11.09375 18.9648438,11.09375 L7.45117188,11.09375 Z M4.4140625,14.6191406 C3.91601562,14.6191406 3.48632812,14.1894531 3.48632812,13.6816406 C3.48632812,13.1738281 3.91601562,12.734375 4.4140625,12.734375 C4.94140625,12.734375 5.36132812,13.1640625 5.36132812,13.6816406 C5.36132812,14.1992188 4.94140625,14.6191406 4.4140625,14.6191406 Z M7.45117188,14.3164062 C7.09960938,14.3164062 6.81640625,14.0332031 6.81640625,13.6816406 C6.81640625,13.3300781 7.08984375,13.0566406 7.45117188,13.0566406 L13.828125,13.0566406 C14.1796875,13.0566406 14.453125,13.3300781 14.453125,13.6816406 C14.453125,14.0332031 14.1699219,14.3164062 13.828125,14.3164062 L7.45117188,14.3164062 Z" id="Shape"></path>
            </g>
        </g>
    </g>
</svg>