<svg xmlns="http://www.w3.org/2000/svg" width="20.605" height="19.854"><path d="M4.951 14.346c2.822 2.822 6.26 5 9.063 5 1.26 0 2.363-.44 3.252-1.416.517-.576.84-1.25.84-1.914 0-.489-.186-.957-.655-1.29l-2.988-2.128c-.46-.313-.84-.47-1.191-.47-.45 0-.84.255-1.29.694l-.693.684a.526.526 0 0 1-.371.156.965.965 0 0 1-.4-.107c-.596-.323-1.631-1.211-2.598-2.168-.957-.957-1.846-1.992-2.158-2.598a.83.83 0 0 1-.108-.39c0-.128.04-.254.147-.362l.683-.713c.44-.449.694-.84.694-1.289 0-.351-.157-.732-.479-1.191l-2.1-2.96c-.341-.468-.82-.673-1.347-.673-.645 0-1.318.293-1.885.85C.42 2.969 0 4.09 0 5.332c0 2.803 2.139 6.201 4.951 9.014Zm5.938-8.448a.54.54 0 0 0 .556-.537V3.867a.542.542 0 0 0-.556-.547.538.538 0 0 0-.537.547v1.494c0 .293.234.537.537.537Zm2.295 1.642a.55.55 0 0 0 .556-.558V2.236a.548.548 0 0 0-.556-.547.546.546 0 0 0-.547.547v4.746c0 .313.244.557.547.557Zm2.295 1.689a.54.54 0 0 0 .546-.547V.566c0-.322-.234-.566-.546-.566-.313 0-.547.244-.547.566v8.116c0 .312.224.547.546.547Zm2.275-.977c.322 0 .566-.234.566-.547V1.514c0-.303-.244-.537-.566-.537a.536.536 0 0 0-.537.537v6.191c0 .313.244.547.537.547Zm2.305-1.836c.322 0 .546-.234.546-.557v-2.5a.536.536 0 0 0-.546-.556.548.548 0 0 0-.547.556v2.5c0 .313.234.557.547.557Z" fill="#0058FF" fill-opacity=".85"/></svg>