<?xml version="1.0" encoding="UTF-8"?>
<svg width="12px" height="19px" viewBox="0 0 12 19" version="1.1" xmlns="http://www.w3.org/2000/svg" xmlns:xlink="http://www.w3.org/1999/xlink">
    <title>􀖉</title>
    <g id="Symbols" stroke="none" stroke-width="1" fill="none" fill-rule="evenodd">
        <g id="history" transform="translate(-32.000000, -81.000000)" fill="#0059FF" fill-rule="nonzero">
            <g id="􀖉" transform="translate(32.277344, 81.964844)">
                <path d="M1.59179687,17.9589844 L9.85351562,17.9589844 C10.8398438,17.9589844 11.4453125,17.4023438 11.4453125,16.3574219 L11.4453125,16.1621094 C11.4453125,13.8085938 8.95507812,11.3085938 7.58789062,9.95117188 C6.97265625,9.3359375 6.92382812,8.65234375 7.58789062,7.98828125 C8.95507812,6.640625 11.4453125,4.15039062 11.4453125,1.77734375 L11.4453125,1.61132812 C11.4453125,0.56640625 10.8398438,0 9.85351562,0 L1.59179687,0 C0.60546875,0 0,0.56640625 0,1.61132812 L0,1.77734375 C0,4.15039062 2.5,6.640625 3.85742188,7.98828125 C4.48242188,8.60351562 4.53125,9.28710938 3.85742188,9.95117188 C2.5,11.3085938 0,13.8085938 0,16.1621094 L0,16.3574219 C0,17.4023438 0.60546875,17.9589844 1.59179687,17.9589844 Z M2.34375,16.6308594 C1.92382813,16.6308594 1.82617188,16.1425781 2.109375,15.8789062 L5.25390625,12.8808594 C5.55664062,12.6074219 5.90820313,12.6171875 6.19140625,12.8808594 L9.3359375,15.8789062 C9.61914062,16.1425781 9.52148438,16.6308594 9.1015625,16.6308594 L2.34375,16.6308594 Z" id="Shape"></path>
            </g>
        </g>
    </g>
</svg>