<?xml version="1.0" encoding="UTF-8"?>
<svg width="100px" height="101px" viewBox="0 0 100 101" version="1.1" xmlns="http://www.w3.org/2000/svg" xmlns:xlink="http://www.w3.org/1999/xlink">
    <title>􀁡</title>
    <g id="Symbols" stroke="none" stroke-width="1" fill="none" fill-rule="evenodd">
        <g id="payment-status/failed-big" transform="translate(-25.000000, -24.000000)" fill="#FF0000" fill-rule="nonzero">
            <g id="􀁡" transform="translate(25.195312, 24.941406)">
                <path d="M49.8046875,99.609375 C77.0507812,99.609375 99.609375,77.0019531 99.609375,49.8046875 C99.609375,22.5585938 77.0019531,0 49.7558594,0 C22.5585938,0 0,22.5585938 0,49.8046875 C0,77.0019531 22.6074219,99.609375 49.8046875,99.609375 Z M33.3984375,70.3125 C31.1523438,70.3125 29.3945312,68.5058594 29.3945312,66.2597656 C29.3945312,65.1855469 29.7851562,64.1601562 30.5664062,63.4277344 L44.0917969,49.8535156 L30.5664062,36.328125 C29.7851562,35.546875 29.3945312,34.5703125 29.3945312,33.4960938 C29.3945312,31.2011719 31.1523438,29.4921875 33.3984375,29.4921875 C34.5214844,29.4921875 35.4003906,29.8828125 36.1816406,30.6152344 L49.8046875,44.1894531 L63.5253906,30.5664062 C64.3554688,29.7363281 65.234375,29.3945312 66.3085938,29.3945312 C68.5546875,29.3945312 70.3613281,31.1523438 70.3613281,33.3984375 C70.3613281,34.5214844 70.0195312,35.4003906 69.140625,36.2792969 L55.5664062,49.8535156 L69.0917969,63.3789062 C69.921875,64.1113281 70.3125,65.1367188 70.3125,66.2597656 C70.3125,68.5058594 68.5058594,70.3125 66.2109375,70.3125 C65.0878906,70.3125 64.0625,69.921875 63.3300781,69.140625 L49.8046875,55.5664062 L36.328125,69.140625 C35.546875,69.921875 34.5214844,70.3125 33.3984375,70.3125 Z" id="Shape"></path>
            </g>
        </g>
    </g>
</svg>