<?xml version="1.0" encoding="UTF-8"?>
<svg width="51px" height="35px" viewBox="0 0 51 35" version="1.1" xmlns="http://www.w3.org/2000/svg" xmlns:xlink="http://www.w3.org/1999/xlink">
    <title>Grabpay</title>
    <g id="Grabpay" stroke="none" stroke-width="1" fill="none" fill-rule="evenodd">
        <rect id="Rectangle" fill="#FFFFFF" fill-rule="nonzero" x="0" y="0" width="50.9838998" height="34.8837209" rx="5.5"></rect>
        <rect id="Rectangle" stroke="#E7E8ED" x="0" y="0" width="50.9838998" height="34.8837209" rx="5.5"></rect>
        <g id="Group-14" transform="translate(3, 12)" fill="#00B041">
            <path d="M25.1249348,6.48906637 C25.112922,6.5829093 25.1009091,6.67675223 25.0888963,6.77059517 C25.0033791,7.44176839 24.71852,8.01790929 24.251922,8.5040133 C23.7768793,8.99879987 23.2005005,9.30792254 22.5226667,9.42139042 C21.4353256,9.60372403 20.1781396,9.1574646 19.540864,8.16075512 C19.4421446,8.00625326 19.3779175,7.82974767 19.2983472,7.66311402 C19.2776518,7.61993913 19.2852639,7.58449528 19.3188047,7.54548327 C19.4360787,7.40917908 19.548714,7.26894991 19.6624197,7.12967225 C19.6740758,7.11539956 19.6807364,7.096964 19.6978636,7.06556408 C19.7402059,7.18331377 19.7663725,7.27454005 19.8046709,7.36065194 C20.165651,8.17419524 20.7861562,8.66600833 21.6616667,8.81563369 C22.9290815,9.03198387 24.1411897,8.17788235 24.4302116,6.96767722 C24.4754085,6.77880196 24.4961039,6.58124415 24.5033592,6.3868977 C24.5129932,6.13415216 24.5064516,5.87997935 24.4917032,5.62735274 C24.4635146,5.14600629 24.2871279,4.71651728 23.994062,4.33745843 C23.5661192,3.78367808 23.0040132,3.44565322 22.307387,3.36501252 C21.6149237,3.28484759 21.0006033,3.49513188 20.4649017,3.93532541 C19.9066017,4.3939545 19.4240658,4.92775308 18.9607981,5.47903571 C18.7450426,5.7355873 18.5390401,6.00010782 18.3282801,6.26082228 C18.3155536,6.27664117 18.301162,6.2910328 18.2784446,6.31612895 C18.2766605,6.28425327 18.2745196,6.26617453 18.2745196,6.24809579 C18.2744007,5.99190102 18.2733302,5.7355873 18.2759469,5.47939253 C18.2763037,5.44418656 18.2871272,5.40220107 18.3080604,5.37496402 C18.6781989,4.89599635 19.0617774,4.42844683 19.4929315,4.00193129 C19.8118072,3.68662379 20.157801,3.40426242 20.5360273,3.16364866 C20.8833294,2.94265986 21.2671458,2.81729807 21.6740364,2.76389442 C23.2888722,2.5517071 24.6960405,3.69376014 25.0276426,5.09486249 C25.0662978,5.25792796 25.079619,5.42705933 25.1051909,5.59333617 C25.1109,5.63032622 25.1182742,5.66707839 25.1249348,5.70383057 L25.1249348,6.48906637 Z" id="Fill-1"></path>
            <path d="M40.561681,9.83717765 C40.6079483,9.87357301 40.6416081,9.89926385 40.6745542,9.92614408 C41.1614908,10.3211408 41.7139628,10.5718643 42.3360142,10.6517914 C42.7495654,10.7049572 43.1632355,10.6968693 43.5572807,10.5328523 C43.9966416,10.3498051 44.21656,10.0029787 44.2566425,9.54125722 C44.2778136,9.29766999 44.2693689,9.05146609 44.2735318,8.80633265 C44.2738886,8.78587513 44.26925,8.76541761 44.2660386,8.73734799 C44.249744,8.74555478 44.2384448,8.74793357 44.2324978,8.75459415 C43.9559645,9.07025847 43.5942707,9.23344289 43.1941597,9.31289419 C42.5436818,9.44206203 41.9130668,9.37212585 41.3234858,9.05931607 C40.692633,8.72462151 40.3287983,8.18035628 40.1539579,7.50002475 C40.085449,7.23288758 40.0551195,6.96027921 40.0551195,6.68422161 C40.0552384,5.4737786 40.0552384,4.2633356 40.0552384,3.05289259 C40.0552384,2.94739363 40.0553574,2.94715575 40.1635919,2.94715575 C40.5807113,2.94703681 40.9979496,2.94929666 41.4150689,2.94523298 C41.4991589,2.94442015 41.518427,2.96975418 41.5181891,3.05158426 C41.5156914,4.28105752 41.5097444,5.51076866 41.52033,6.74024192 C41.5250876,7.3056783 41.8608526,7.87682375 42.5731787,8.00075827 C42.9853026,8.0723596 43.3776827,8.00706204 43.7165401,7.74147108 C43.972497,7.54070192 44.1011891,7.26607158 44.1425799,6.94969363 C44.1587556,6.82611593 44.1601829,6.69992157 44.1604207,6.57479766 C44.1616101,5.4025341 44.1611344,4.2301516 44.1611344,3.05788803 C44.1611344,2.94739363 44.1612533,2.94715575 44.2725803,2.94715575 C44.6788762,2.94703681 45.0850531,2.94810727 45.4912301,2.9460853 C45.5536731,2.94584742 45.57532,2.96333147 45.5752011,3.02969947 C45.573417,5.19974297 45.5797208,7.3699054 45.5690163,9.53994889 C45.5660428,10.1339307 45.3901319,10.6831913 44.9844307,11.1383712 C44.6448596,11.519333 44.2128729,11.74389 43.7262931,11.872701 C43.4385795,11.9488221 43.1451568,11.9824818 42.847928,11.9960409 C42.0226097,12.0336256 41.2851874,11.8040732 40.6380399,11.2876397 C40.5795219,11.2411345 40.5540689,11.1918938 40.5546636,11.1154159 C40.5584697,10.7147102 40.5564477,10.3140044 40.5566856,9.91317972 C40.5566856,9.89438735 40.5591833,9.87559497 40.561681,9.83717765" id="Fill-2"></path>
            <path d="M29.0335108,5.61763542 C29.2269058,5.61763542 29.4206575,5.62382025 29.6136956,5.61573239 C29.778902,5.60895287 29.9463682,5.60062713 30.1074118,5.56696737 C30.5484379,5.47455171 30.8696923,5.22834781 31.0176525,4.79100882 C31.1359969,4.44120899 31.1381378,4.08486751 31.0347798,3.73138057 C30.9343952,3.38836027 30.7128117,3.15274195 30.3794254,3.019887 C30.171282,2.93698646 29.9539803,2.90415928 29.7337052,2.90142368 C29.2597329,2.89559566 28.7856418,2.90011535 28.3116695,2.89892596 C28.2513674,2.89868808 28.233168,2.92140544 28.2332887,2.98111286 C28.2349538,3.83105152 28.2350728,4.68110911 28.233168,5.53104777 C28.2329319,5.60027031 28.2562439,5.61965738 28.322493,5.61882481 C28.5595386,5.61573239 28.7964652,5.61763542 29.0335108,5.61763542 L29.0335108,5.61763542 Z M28.2343591,9.40322842 L28.1364723,9.40322842 C27.7357665,9.40322842 27.3349418,9.40049282 26.9342361,9.40563137 C26.8480052,9.40655871 26.8305212,9.37955954 26.8305212,9.29963248 C26.8325432,7.59024004 26.8320674,5.8808476 26.8320674,4.17145516 C26.8320674,3.34815886 26.8320674,2.52474361 26.8321863,1.70144731 C26.8321863,1.59392638 26.8325432,1.59356957 26.9391126,1.5936885 C27.9341569,1.59416426 28.929677,1.57727491 29.9242456,1.60106273 C30.6428755,1.61830889 31.3013222,1.83668104 31.8221565,2.36631676 C32.1487632,2.69863255 32.3414445,3.10314435 32.4288647,3.55701588 C32.5398349,4.13315678 32.5275841,4.70668101 32.3332377,5.26438636 C32.0408854,6.10314474 31.4335825,6.59709873 30.5884014,6.81903905 C30.3027097,6.89385174 30.01119,6.92394332 29.7159833,6.92358651 C29.2579489,6.92299181 28.7999145,6.92334863 28.3418801,6.92346757 C28.234597,6.92358651 28.2343591,6.9241812 28.2343591,7.03229682 L28.2343591,9.40322842 Z" id="Fill-3"></path>
            <path d="M37.7806475,6.15657217 C37.7644718,5.92618718 37.7692293,5.69223401 37.7281954,5.4663687 C37.6281676,4.91722697 37.3194017,4.52437119 36.7894092,4.32526718 C36.457926,4.20073796 36.1150246,4.19122284 35.7684362,4.25223858 C35.1249757,4.3658254 34.6292377,4.86988922 34.5326591,5.51406327 C34.4786608,5.87409186 34.4798502,6.23721287 34.5177917,6.59724146 C34.5811863,7.19812169 34.886265,7.64105082 35.4367151,7.90021907 C35.7797354,8.0616194 36.1422617,8.07672466 36.514541,8.02605661 C37.1012675,7.94636743 37.5400337,7.5709957 37.6988174,7.00080176 C37.7761278,6.72343582 37.7680399,6.44059869 37.7806475,6.15657217 M37.7657801,8.73897745 C37.4445257,9.07462353 37.0578547,9.2595738 36.6193263,9.34675615 C36.2937901,9.41157794 35.9657561,9.40729614 35.6370085,9.37327956 C35.237611,9.33176982 34.8574818,9.22615192 34.5050653,9.03204334 C33.8503056,8.671539 33.4509082,8.11264426 33.2507337,7.40198327 C33.162362,7.0885788 33.1226363,6.76756222 33.121447,6.44297748 C33.1202576,6.12981088 33.1127644,5.81521702 33.1391689,5.50383451 C33.2416944,4.29446196 33.9255941,3.28823735 35.259258,2.97197834 C35.9563599,2.80653408 36.6554838,2.82092571 37.3351017,3.05690084 C38.2511705,3.37518182 38.8100652,4.02791948 39.0463972,4.9626617 C39.1158576,5.23788673 39.1473764,5.51834508 39.1471399,5.80260948 C39.1461871,6.93931025 39.1467818,8.07601103 39.1466628,9.21259286 C39.1466628,9.32784483 39.1465439,9.32796377 39.031054,9.32808271 C38.6411717,9.32808271 38.2514084,9.3265365 37.8617639,9.32939104 C37.7899247,9.3298668 37.7606657,9.31381002 37.7638771,9.23447766 C37.7704187,9.06950915 37.7657801,8.90430277 37.7657801,8.73897745" id="Fill-4"></path>
            <path d="M6.40233002,5.68320653 L3.83740878,5.68320653 C3.83526788,5.64800057 3.8322944,5.61933625 3.83217546,5.59067193 C3.83158077,5.45436775 3.83181865,5.31806356 3.83193759,5.18175938 C3.83193759,5.06959983 3.83193759,5.06948089 3.94826001,5.06948089 L6.02564996,5.06948089 C6.32549537,5.06948089 6.62545973,5.07162179 6.92530515,5.06793468 C6.99702541,5.06698317 7.01867232,5.08767857 7.01855387,5.15975565 C7.01665036,6.22580661 7.01772081,7.29173864 7.01510415,8.35767066 C7.01498521,8.40179706 6.9954792,8.45508177 6.96693383,8.48850365 C6.65590813,8.85210041 6.26305236,9.10306187 5.83082774,9.29609999 C5.42298564,9.47831466 4.99421026,9.5819106 4.55009174,9.63019986 C3.79435284,9.71214889 3.058001,9.64375892 2.36339678,9.32167189 C1.14569849,8.75718703 0.382109605,7.81352437 0.104386856,6.50031801 C-0.0590354387,5.72733293 -0.042859724,4.95101756 0.240809979,4.20086879 C0.613921869,3.21438807 1.29127992,2.49397407 2.21389036,1.99859281 C2.70296785,1.73585639 3.22606192,1.57861892 3.77912863,1.51748424 C4.18471089,1.47252527 4.58898482,1.48834416 4.99385345,1.5201009 C5.39134785,1.551144 5.77968394,1.62417259 6.1548178,1.76380707 C6.23129562,1.79223351 6.26495538,1.82636902 6.26079251,1.91462182 C6.25199102,2.10135618 6.25817585,2.2889231 6.25817585,2.48850288 C6.18229272,2.44984768 6.11842244,2.41595004 6.05324382,2.38455012 C5.71355381,2.22053313 5.35293053,2.13097201 4.979105,2.10123724 C4.70839966,2.0798282 4.43614811,2.06531763 4.16484807,2.06864793 C3.35392143,2.07899563 2.62815517,2.34470553 1.9863599,2.83556711 C1.37774863,3.30109466 0.952541427,3.89793096 0.739997293,4.6385646 C0.632357427,5.01369846 0.612851418,5.39692017 0.628432437,5.7859699 C0.648295263,6.28028071 0.752961652,6.75211204 0.975496669,7.19254344 C1.46279007,8.15713937 2.23755923,8.75575976 3.29635491,8.98126825 C3.72441666,9.07249452 4.15616551,9.06345515 4.58839013,9.01373862 C5.09685469,8.95533953 5.58105568,8.81963004 6.01637271,8.54226411 C6.13531179,8.46649992 6.24544937,8.37563046 6.35237561,8.28345268 C6.38425128,8.25597775 6.40792016,8.2004332 6.40815803,8.15749619 C6.41136939,7.36143694 6.41065575,6.56537768 6.41018,5.76943737 C6.41018,5.74279501 6.40542243,5.7162716 6.40233002,5.68320653" id="Fill-5"></path>
            <path d="M15.6972287,8.66075122 C15.6972287,8.85878479 15.6993696,9.04647065 15.6944931,9.23391864 C15.6938984,9.25556555 15.6578599,9.28839274 15.6326448,9.29529121 C15.4419855,9.34774334 15.2523966,9.41886891 15.0576933,9.43968325 C14.2583038,9.52508151 13.5352731,9.31336995 12.8995437,8.82441139 C12.2303925,8.30988094 11.8167937,7.63264182 11.7086781,6.79388344 C11.6627676,6.43694726 11.6772782,6.07049596 11.6842956,5.70868328 C11.6982114,4.98303596 11.9634932,4.34992325 12.4373465,3.80565802 C12.9091778,3.26377158 13.4988777,2.91064146 14.2081115,2.78730163 C15.1692582,2.62031116 16.0289498,2.86009235 16.7676804,3.49867626 C17.3391827,3.99251132 17.6813704,4.62086647 17.8034019,5.36613874 C17.8264761,5.50779518 17.8378943,5.6530198 17.8381321,5.7966982 C17.8408677,6.97990416 17.8397973,8.16311012 17.8397973,9.34631607 L17.8397973,9.45562108 L17.2276179,9.45562108 L17.2276179,9.33894185 C17.2276179,8.15573589 17.2354678,6.97252994 17.2254769,5.78932398 C17.2150103,4.54557803 16.3163066,3.59442222 15.2139792,3.38853867 C13.8807911,3.13948024 12.598271,4.05102934 12.3336316,5.35448271 C12.3072271,5.48436418 12.2908135,5.61852746 12.2891484,5.75090666 C12.2846287,6.0989224 12.2575106,6.44919799 12.326971,6.79388344 C12.5101372,7.702578 13.0400108,8.33176573 13.8919714,8.68299283 C14.4576456,8.91623236 15.0330729,8.89815362 15.6054078,8.69191326 C15.6327637,8.68204132 15.6604766,8.67312089 15.6972287,8.66075122" id="Fill-6"></path>
            <path d="M5.93174755,6.15815406 L5.93174755,6.24509853 C5.93174755,6.81220006 5.93079604,7.37918265 5.93317482,7.9460463 C5.9334127,8.00741886 5.91378775,8.04666876 5.86680682,8.08365881 C5.60133479,8.29215902 5.2930447,8.40360493 4.96988722,8.47663353 C4.60450637,8.55893937 4.23187024,8.59854608 3.85911517,8.57404463 C2.76344837,8.50172967 1.95287855,7.97066669 1.42871403,7.00951999 C1.19939948,6.58895141 1.10591337,6.13139277 1.09770657,5.65194934 C1.08985659,5.187968 1.14896932,4.73980555 1.35235514,4.31876121 C1.72522915,3.54637083 2.33027225,3.03017523 3.12716407,2.73258965 C3.60672644,2.55358634 4.10460542,2.51255236 4.61306999,2.54454697 C5.0446999,2.57166508 5.46669575,2.63755733 5.87085074,2.79574631 C5.98467544,2.84034846 6.0956456,2.89280059 6.2051885,2.94703681 C6.22873843,2.95869284 6.25538079,2.99330412 6.2557376,3.01780557 C6.25966259,3.23558302 6.25799745,3.45359835 6.25799745,3.68814621 C6.22481344,3.66566673 6.20102563,3.65115616 6.17890296,3.63450469 C5.84194855,3.37997506 5.45753745,3.24295724 5.04244006,3.19811721 C4.76436049,3.16814456 4.48247488,3.1393613 4.20415743,3.15113627 C3.22231534,3.19300283 2.45575297,3.6174964 1.96049065,4.48242138 C1.78874262,4.7822668 1.7165466,5.11244168 1.70952919,5.45962485 C1.70167921,5.86187682 1.74176168,6.25449472 1.9152938,6.62189753 C2.26045501,7.35277817 2.82708078,7.806055 3.62991956,7.93260618 C4.19666427,8.02192943 4.75163401,7.94235918 5.29019016,7.74646652 C5.3447832,7.7266037 5.36512178,7.69591741 5.36464603,7.63811302 C5.36226724,7.38191825 5.36119679,7.12560453 5.36512178,6.86940975 C5.36643011,6.78936375 5.3441885,6.76093731 5.25938494,6.76176989 C4.81502854,6.76581382 4.37067214,6.76212671 3.92643468,6.76521912 C3.85304927,6.76557594 3.82735843,6.74761614 3.83009403,6.67042468 C3.83604098,6.50200694 3.83187812,6.33323239 3.83187812,6.15815406 L5.93174755,6.15815406 Z" id="Fill-7"></path>
            <path d="M20.5594583,6.02626252 C20.5947832,6.18671134 20.6173816,6.32289658 20.6550853,6.45480002 C20.7586812,6.81708845 20.9379224,7.13548837 21.2087467,7.40238766 C21.7795353,7.96508844 22.5789249,7.80856462 23.0242328,7.35338476 C23.2703178,7.10194755 23.4061462,6.79912865 23.412331,6.44540383 C23.4170886,6.17886136 23.4307666,5.91041586 23.406503,5.64589534 C23.3540509,5.07582034 22.9237293,4.59994509 22.3645967,4.47279921 C21.8723078,4.36099648 21.4435324,4.49730066 21.0742266,4.8300922 C20.5830082,5.27290239 20.155898,5.77637151 19.7315233,6.28079215 C19.2491064,6.85384063 18.7816759,7.43949665 18.3078226,8.01991936 C18.3027082,8.02610419 18.2994968,8.03395417 18.2798719,8.03716552 C18.2780878,8.01551861 18.2747575,7.9938717 18.2747575,7.97222479 C18.2744007,7.70782322 18.2723787,7.44342164 18.2766605,7.17902007 C18.2773742,7.13418004 18.2942635,7.08196578 18.3211437,7.04628406 C18.7583638,6.46383939 19.2336444,5.91291358 19.7266468,5.37768772 C19.9960439,5.08509759 20.2656787,4.79191276 20.5505378,4.51478471 C20.8728627,4.20102342 21.2464504,3.95898239 21.6928288,3.86347431 C22.2244864,3.74988749 22.7155859,3.87061065 23.1567309,4.18080377 C23.6106025,4.50003626 23.8980782,4.9335692 24.0011984,5.48235411 C24.0191582,5.57798113 24.0266514,5.67705738 24.0260567,5.77446849 C24.0240347,6.06836695 24.0372369,6.36452526 24.0055991,6.65556918 C23.9213903,7.42558078 23.3414433,8.08307601 22.5833256,8.29895044 C21.7534877,8.53528239 20.9078308,8.20177721 20.4185155,7.4460383 C20.2693659,7.21541543 20.1614881,6.96683275 20.099164,6.69993346 C20.0903625,6.66211083 20.103089,6.6069231 20.1269958,6.57611788 C20.255331,6.41019787 20.3906837,6.24963011 20.522944,6.08680251 C20.5346,6.07252982 20.542331,6.05504578 20.5594583,6.02626252" id="Fill-8"></path>
            <path d="M15.6973477,7.4638078 C15.6973477,7.67456785 15.6999643,7.87034157 15.6946121,8.06587742 C15.6937795,8.09501749 15.6602387,8.13117497 15.632169,8.15020523 C15.4694604,8.26141326 15.2839154,8.31707675 15.0923046,8.34657364 C14.2571144,8.47514679 13.4667642,8.10108339 13.0372752,7.37567394 C12.856012,7.06964369 12.7608607,6.73875518 12.7632395,6.38134324 C12.7644289,6.20697856 12.7646668,6.03249493 12.7632395,5.8580113 C12.7577683,5.19682896 13.0270464,4.66481446 13.5358678,4.25554509 C14.6725686,3.34173615 16.4310828,3.9341717 16.7123738,5.42971168 C16.7378267,5.56518329 16.7484123,5.70517458 16.7487691,5.84326285 C16.7515047,7.012434 16.7504343,8.18172408 16.7503153,9.35101416 C16.7503153,9.46103281 16.7500775,9.46103281 16.6380368,9.46103281 C16.5018516,9.46115175 16.3653095,9.4573457 16.2292432,9.46257902 C16.1587124,9.46531462 16.1419419,9.43879121 16.1425366,9.37325577 C16.1452722,9.0598513 16.143726,8.74632789 16.143726,8.43292342 C16.143726,7.5797734 16.1439639,6.72674233 16.1436071,5.87359232 C16.1436071,5.57017873 16.0786664,5.28341661 15.9008524,5.03293091 C15.6215835,4.6393615 15.239908,4.4448961 14.7542797,4.43621355 C14.1853941,4.42610373 13.5834434,4.80528151 13.4187128,5.46682067 C13.3919515,5.57398478 13.3804144,5.68673902 13.3766084,5.79723343 C13.3699478,5.99050943 13.3748243,6.18426119 13.3748243,6.37777507 C13.3748243,7.07618534 13.861523,7.64994746 14.5530348,7.74878583 C14.9317368,7.80290311 15.2889109,7.72309499 15.6150418,7.51780614 C15.6378781,7.50341451 15.6602387,7.48830925 15.6973477,7.4638078" id="Fill-9"></path>
            <path d="M12.3657451,3.15035127 C12.2113622,3.31829325 12.075177,3.46637241 11.9424409,3.61076445 C11.7841092,3.55093809 11.6318672,3.47231936 11.4699911,3.43556719 C10.5007566,3.21600565 9.63654524,3.39940971 8.93956224,4.14515773 C8.62853654,4.47794927 8.45536125,4.88674289 8.38863642,5.33514321 C8.35699863,5.5466169 8.34498578,5.76284814 8.34415321,5.97705742 C8.33999034,7.09996127 8.34225018,8.22286511 8.34213124,9.34576895 C8.34213124,9.46102092 8.3420123,9.46102092 8.22699821,9.46113986 C8.08795843,9.46113986 7.94891865,9.45864214 7.8099978,9.46221031 C7.75183659,9.46375652 7.7299518,9.44222854 7.73554194,9.38668399 C7.73696921,9.37324388 7.73566088,9.35944695 7.73566088,9.34576895 C7.73566088,8.17659781 7.73637451,7.00730772 7.73530406,5.83801764 C7.73469795,5.16410882 7.9003915,4.53932184 8.29182001,3.98530361 C8.75449303,3.33006822 9.39307694,2.94518136 10.1760529,2.79698327 C10.7847831,2.6817313 11.3838792,2.71979181 11.963731,2.9480359 C12.0990837,3.00132061 12.2248023,3.07863101 12.3657451,3.15035127" id="Fill-10"></path>
            <path d="M11.6747329,4.00407219 C11.5821983,4.18854671 11.494778,4.36267352 11.4096177,4.53251852 C11.2877051,4.5038542 11.1682903,4.4636528 11.045902,4.44926117 C10.4631005,4.38039544 9.89944818,4.56368056 9.59579671,5.1247162 C9.48506443,5.32941035 9.43296911,5.55135067 9.43285017,5.78375763 C9.43189866,6.96969919 9.43237441,8.1555218 9.43237441,9.34146336 L9.43237441,9.45386079 L8.82566617,9.45386079 C8.8242389,9.42567222 8.82126543,9.39677003 8.82126543,9.36798677 C8.82102755,8.16301496 8.81091773,6.95792422 8.82435784,5.75319029 C8.83506236,4.78193377 9.50504619,4.02429184 10.4168332,3.85956121 C10.7819761,3.79366896 11.1428373,3.81555375 11.4970379,3.92723755 C11.5581726,3.94638674 11.6152633,3.97802454 11.6747329,4.00407219" id="Fill-11"></path>
            <path d="M18.9192884,0.00428180684 L19.5210012,0.00428180684 C19.5224284,0.0371089926 19.525164,0.0661301278 19.525164,0.0951512631 C19.5254019,1.13651047 19.5249262,2.17794105 19.5262351,3.21925268 C19.5263534,3.27229951 19.509702,3.30762442 19.4718793,3.34616068 C19.3076245,3.51303221 19.148484,3.68489918 18.9875594,3.85498206 C18.9675776,3.87627215 18.9486663,3.89839482 18.9192884,3.93110307 L18.9192884,0.00428180684 Z" id="Fill-12"></path>
            <path d="M20.0042506,3.01776988 L20.0042506,2.91476864 C20.0042506,1.9796696 20.0042506,1.04457057 20.0043696,0.109471528 C20.0043696,0.000118939079 20.0046075,0.000118939079 20.1172428,0 L20.493566,0 C20.610721,0.000118939079 20.61084,0.000118939079 20.61084,0.121484375 C20.6109589,0.301439201 20.6109589,0.481394028 20.6109589,0.661348854 C20.6109589,1.28018888 20.6101263,1.89902891 20.6119126,2.51798787 C20.6121483,2.58209604 20.5927612,2.61896715 20.5362651,2.65464888 C20.3797413,2.75336831 20.2297591,2.86231651 20.0772792,2.96722078 C20.0581301,2.98042301 20.0390998,2.99362525 20.0042506,3.01776988" id="Fill-13"></path>
        </g>
    </g>
</svg>