<svg xmlns="http://www.w3.org/2000/svg" width="21.943" height="21.357"><path d="M2.9 17.617h.225v-5.42c0-1.396.86-2.256 2.256-2.256h11.181c1.397 0 2.256.86 2.256 2.256v5.42h.215c1.904 0 2.91-.957 2.91-2.861v-7.95c0-1.904-1.006-2.87-2.91-2.87H2.9c-1.796 0-2.9.966-2.9 2.87v7.95c0 1.904 1.006 2.861 2.9 2.861Zm.967-14.98h14.21V2.47c0-1.446-1.124-2.09-2.706-2.09H6.572c-1.513 0-2.705.644-2.705 2.09Zm.596 17.402c0 .791.527 1.318 1.308 1.318h10.4c.792 0 1.31-.527 1.31-1.318v-7.842c0-.556-.362-.918-.919-.918H5.382c-.547 0-.918.362-.918.918Zm3.33-4.844a.63.63 0 0 1-.635-.644c0-.342.274-.606.635-.606h6.377c.361 0 .625.264.625.606 0 .361-.264.644-.625.644Zm0 3.496a.617.617 0 0 1-.635-.615c0-.361.274-.635.635-.635h6.377c.361 0 .625.274.625.635a.609.609 0 0 1-.625.615Zm7.93-11.523c0-.674.576-1.26 1.27-1.26.663 0 1.25.586 1.25 1.26 0 .693-.587 1.24-1.25 1.25-.694 0-1.27-.547-1.27-1.25Z" fill="#fff"/></svg>