<?xml version="1.0" encoding="UTF-8"?>
<svg width="51px" height="35px" viewBox="0 0 51 35" version="1.1" xmlns="http://www.w3.org/2000/svg" xmlns:xlink="http://www.w3.org/1999/xlink">
    <title>UnionPay</title>
    <g id="UnionPay" stroke="none" stroke-width="1" fill="none" fill-rule="evenodd">
        <rect id="Rectangle" fill="#FFFFFF" fill-rule="nonzero" x="0" y="0" width="50.9838998" height="34.8837209" rx="5.5"></rect>
        <rect id="Rectangle" stroke="#E7E8ED" x="0" y="0" width="50.9838998" height="34.8837209" rx="5.5"></rect>
        <path d="M15.2330948,7.00725403 L23.2208408,7.00725403 C24.3358676,7.00725403 25.0294275,7.94281753 24.7693202,9.09445438 L21.0504472,25.5305903 C20.7879249,26.6781753 19.6715564,27.6145796 18.555814,27.6145796 L10.5687835,27.6145796 C9.45536673,27.6145796 8.76028623,26.6781753 9.02039356,25.5305903 L12.7407871,9.09445438 C13.0008945,7.94281753 14.1167263,7.00725403 15.2330948,7.00725403 Z" id="Path" fill="#E21836" fill-rule="nonzero"></path>
        <path d="M22.5557245,7.0065653 L31.7414132,7.0065653 C32.8562612,7.0065653 32.3535778,7.94213775 32.0913238,9.09373882 L28.3730769,25.5298748 C28.1121646,26.6775492 28.1935599,27.613864 27.0763864,27.613864 L17.8906977,27.613864 C16.7735242,27.613864 16.0821109,26.6775492 16.3445438,25.5298748 L20.0627013,9.09373882 C20.3266547,7.94213775 21.440161,7.0065653 22.5557245,7.0065653 Z" id="Path" fill="#00447C" fill-rule="nonzero"></path>
        <path d="M31.3772809,7.0065653 L39.3650268,7.0065653 C40.4815742,7.0065653 41.1751342,7.94213775 40.9128801,9.09373882 L37.1945438,25.5298748 C36.9321109,26.6775492 35.8149374,27.613864 34.6985689,27.613864 L26.7144902,27.613864 C25.5973166,27.613864 24.9044723,26.6775492 25.1661002,25.5298748 L28.8849732,9.09373882 C29.1450805,7.94213775 30.2601073,7.0065653 31.3772809,7.0065653 Z" id="Path" fill="#007B84" fill-rule="nonzero"></path>
        <path d="M17.318873,12.2738819 C16.4974061,12.2824687 16.2548301,12.2738819 16.1773703,12.2550089 C16.147585,12.4007156 15.5932916,15.0328265 15.5916816,15.0350626 C15.4723614,15.5676208 15.3855098,15.9471377 15.0905188,16.1923077 C14.9230769,16.3347943 14.7276386,16.4035778 14.5009839,16.4035778 C14.1367621,16.4035778 13.9245081,16.2173524 13.8889088,15.8642218 L13.8821109,15.7429338 C13.8821109,15.7429338 13.9930233,15.0296064 13.9930233,15.0256708 C13.9930233,15.0256708 14.5747764,12.6270125 14.6789803,12.3099284 C14.6844365,12.2918605 14.6859571,12.2824687 14.6873882,12.2738819 C13.5550089,12.2840787 13.3542934,12.2738819 13.3404293,12.2550089 C13.3328265,12.2808587 13.3048301,12.4296064 13.3048301,12.4296064 L12.7108229,15.1330948 L12.6597496,15.3623435 L12.5610912,16.1123435 C12.5610912,16.3347943 12.6034884,16.5163685 12.6880143,16.6698569 C12.9586762,17.1567084 13.7305903,17.2296959 14.1673524,17.2296959 C14.7299642,17.2296959 15.2577818,17.106619 15.6144902,16.881932 C16.2336315,16.5053667 16.3956172,15.9167263 16.5400716,15.3936494 L16.6070662,15.1252236 C16.6070662,15.1252236 17.2063506,12.6339893 17.3081395,12.3099284 C17.3119857,12.2918605 17.3135957,12.2824687 17.318873,12.2738819 Z M19.3577818,14.283542 C19.2133274,14.283542 18.9493739,14.319678 18.712254,14.4392665 C18.6261181,14.4847943 18.5448122,14.5372987 18.4589445,14.5896243 L18.5364043,14.30161 L18.4939177,14.2531306 C17.9910555,14.3579606 17.8785331,14.3719141 17.4139535,14.4392665 L17.3750447,14.4659213 C17.3211091,14.926297 17.2732558,15.2724508 17.0732558,16.1773703 C16.9971377,16.5108229 16.918068,16.847585 16.8388193,17.1802326 L16.8602862,17.2225403 C17.3363148,17.1966905 17.4807692,17.1966905 17.8944544,17.2036673 L17.9279964,17.1661896 C17.9805903,16.8889982 17.9873882,16.8240608 18.1037567,16.2627013 C18.1584973,15.9966011 18.2726297,15.4117174 18.3288909,15.2034884 C18.4322004,15.1542039 18.5342576,15.1057245 18.6315742,15.1057245 C18.8635063,15.1057245 18.8352415,15.3139535 18.826297,15.3968694 C18.8163685,15.5362254 18.7318426,15.9911449 18.6452594,16.3817531 L18.5873882,16.6338998 C18.5471377,16.8201252 18.5029517,17.0010733 18.4626118,17.1856887 L18.4801431,17.2225403 C18.9493739,17.1966905 19.0924866,17.1966905 19.4931127,17.2036673 L19.5402504,17.1661896 C19.6127013,16.7332737 19.6338998,16.6174419 19.7624329,15.9871199 L19.8270125,15.6974955 C19.9525939,15.1307692 20.015653,14.843381 19.9206619,14.6092129 C19.8202147,14.3468694 19.5791592,14.283542 19.3577818,14.283542 Z M21.6355993,14.8770125 C21.3862254,14.926297 21.227102,14.9591234 21.0690519,14.9804114 C20.9123435,15.0062612 20.7594812,15.0296959 20.5184258,15.0642218 L20.4993739,15.0820215 L20.4818426,15.0962433 C20.4567084,15.2810376 20.4391771,15.4407871 20.4059034,15.6285331 C20.3776386,15.8228086 20.3342576,16.0434705 20.2635957,16.3604651 C20.2088551,16.60322 20.1806798,16.6878354 20.1494633,16.7731664 C20.1191413,16.8585868 20.0855993,16.9415027 20.0241503,17.1802326 L20.038551,17.2022361 L20.0506261,17.2225403 C20.2758497,17.2115385 20.4232558,17.2036673 20.5746869,17.2022361 C20.7259392,17.1966905 20.882737,17.2022361 21.1253131,17.2036673 L21.1465116,17.1858676 L21.1693202,17.1661896 C21.2043828,16.9509839 21.2095707,16.8930233 21.2310376,16.7880143 C21.2522361,16.6754025 21.2888193,16.5194097 21.3786225,16.1029517 C21.4210197,15.9073345 21.4683363,15.7123435 21.5123435,15.5127013 C21.5581395,15.313864 21.6059928,15.118068 21.6515206,14.9224508 L21.6447227,14.8988372 L21.6355993,14.8770125 Z M21.6408766,14.0768336 C21.4143113,13.9391771 21.0165474,13.9828265 20.7488372,14.1730769 C20.481932,14.3594812 20.4515206,14.6240608 20.6773703,14.7635063 C20.9000894,14.8974061 21.2993739,14.8575134 21.5647585,14.6657424 C21.831127,14.4753131 21.8644007,14.2131485 21.6408766,14.0768336 Z M23.011449,17.265653 C23.4699463,17.265653 23.9399821,17.1355993 24.2937388,16.7495528 C24.5659213,16.4364937 24.6906977,15.9707513 24.7338998,15.7789803 C24.8746869,15.1432021 24.7651163,14.8464222 24.6274597,14.6655635 C24.4183363,14.3899821 24.0488372,14.30161 23.6654741,14.30161 C23.4349732,14.30161 22.8858676,14.3250447 22.4569767,14.7321109 C22.1489267,15.0257603 22.006619,15.4242397 21.9207513,15.8061717 C21.8341682,16.1954383 21.7344365,16.8960644 22.3603757,17.1567979 C22.5535778,17.2422182 22.831932,17.265653 23.011449,17.265653 Z M22.9756708,15.8352415 C23.0813953,15.3538462 23.2061717,14.9498211 23.5246869,14.9498211 C23.7742397,14.9498211 23.7923971,15.2504472 23.6813953,15.7334526 C23.6615385,15.8406977 23.5703936,16.239356 23.4472272,16.409034 C23.3611807,16.534347 23.2593023,16.6102862 23.14678,16.6102862 C23.1133274,16.6102862 22.9141324,16.6102862 22.9110018,16.305814 C22.9094812,16.1555456 22.9392665,16.0020572 22.9756708,15.8352415 Z M25.8801431,17.2037567 L25.9159213,17.1662791 C25.9667263,16.8890877 25.9751342,16.8239714 26.0876565,16.2627907 C26.1439177,15.9966011 26.2603757,15.4118068 26.3150268,15.2035778 C26.4186047,15.154025 26.518873,15.1055456 26.6193202,15.1055456 C26.8496422,15.1055456 26.8216458,15.3137746 26.8125224,15.39678 C26.8041145,15.5362254 26.7195886,15.9910555 26.6313953,16.3816637 L26.5767442,16.6337209 C26.5348837,16.8201252 26.4892665,17.0008945 26.4490161,17.1856887 L26.4665474,17.2226297 C26.9372987,17.19678 27.0749553,17.19678 27.4779964,17.2037567 L27.5266547,17.1662791 C27.5973166,16.7331843 27.6163685,16.6173524 27.7487478,15.9872093 L27.8118962,15.6974061 C27.9380143,15.1305903 28.0018784,14.843381 27.9084079,14.6093023 C27.8050089,14.3469589 27.5624329,14.2836315 27.344186,14.2836315 C27.1995528,14.2836315 26.9341682,14.3194991 26.69839,14.439356 C26.6141324,14.4848837 26.5296064,14.5371199 26.4466905,14.5896243 L26.518873,14.3016995 L26.4801431,14.2529517 C25.9774597,14.3579606 25.8626118,14.3720036 25.3986583,14.439356 L25.3629696,14.4660107 C25.3067084,14.9263864 25.2610018,15.2722719 25.0610018,16.1773703 C24.9848837,16.5109123 24.905814,16.847585 24.8268336,17.180322 L24.8480322,17.2226297 C25.3248658,17.19678 25.4671735,17.19678 25.8801431,17.2037567 Z M29.3389982,17.2225403 C29.3685152,17.0737925 29.5443649,16.1923077 29.5458855,16.1923077 C29.5458855,16.1923077 29.6956172,15.5456172 29.7048301,15.522093 C29.7048301,15.522093 29.7518784,15.4547406 29.7990161,15.4280859 L29.8683363,15.4280859 C30.5222719,15.4280859 31.2608229,15.4280859 31.8396243,14.9898032 C32.2334526,14.6891771 32.5027728,14.2452594 32.622898,13.7057245 C32.654025,13.5734347 32.6770125,13.4161002 32.6770125,13.2587657 C32.6770125,13.0521467 32.6366726,12.8476744 32.5203041,12.6879249 C32.2251342,12.2628801 31.6372987,12.2550984 30.9588551,12.2518784 C30.9567084,12.2518784 30.6243292,12.2550984 30.6243292,12.2550984 C29.755814,12.2661002 29.4075134,12.2628801 29.2644007,12.2448122 C29.2523256,12.3100179 29.229517,12.4258497 29.229517,12.4258497 C29.229517,12.4258497 28.9184258,13.9101073 28.9184258,13.9125224 C28.9184258,13.9125224 28.1738819,17.0683363 28.1388193,17.2170841 C28.8972272,17.2076923 29.2081395,17.2076923 29.3389982,17.2225403 Z M29.9154741,14.5857782 C29.9154741,14.5857782 30.2462433,13.1044723 30.2446333,13.1100179 L30.2553667,13.0340787 L30.2600179,12.9762075 L30.3922182,12.990161 C30.3922182,12.990161 31.0745081,13.0505367 31.0904293,13.0521467 C31.3596601,13.1593918 31.4706619,13.4357782 31.3932021,13.7965116 C31.3225403,14.1262075 31.1147585,14.4033989 30.8478533,14.5372987 C30.6279964,14.6507156 30.3587657,14.6601073 30.0813059,14.6601073 L29.9017889,14.6601073 L29.9154741,14.5857782 Z M31.9750447,15.8627013 C31.8875671,16.2463327 31.7871199,16.9469589 32.4099284,17.1966905 C32.6085868,17.2837209 32.7864937,17.3095707 32.9673524,17.3000894 C33.1584079,17.2895349 33.3353309,17.1908766 33.4992844,17.0490161 C33.4844365,17.1073345 33.469678,17.165653 33.4549195,17.2241503 L33.4830948,17.2616279 C33.931127,17.2422182 34.0701252,17.2422182 34.5554562,17.245975 L34.5994633,17.2115385 C34.6703936,16.7826476 34.7371199,16.3661896 34.921288,15.5456172 C35.0110912,15.1525939 35.1006261,14.7634168 35.1927549,14.3720036 L35.1783542,14.3288909 C34.6771914,14.4245081 34.5432021,14.4449016 34.0611807,14.5152952 L34.0245975,14.545975 C34.019678,14.5857782 34.0146691,14.6240608 34.0099284,14.6623435 C33.9349732,14.537746 33.8263864,14.4313059 33.6587657,14.3649374 C33.4443649,14.2781753 32.9408766,14.3899821 32.5080501,14.7956172 C32.2039356,15.0852415 32.0579606,15.4821109 31.9750447,15.8627013 Z M33.0275492,15.886136 C33.1347943,15.4133274 33.2580501,15.0133274 33.5773703,15.0133274 C33.7792487,15.0133274 33.8855098,15.2050984 33.8639535,15.5322004 C33.84678,15.6137746 33.8282648,15.6997317 33.8063506,15.7969589 C33.7744186,15.9374776 33.7397138,16.0767442 33.7060823,16.2162791 C33.6717352,16.3116279 33.6318426,16.40161 33.5880143,16.4615385 C33.5059034,16.5813953 33.3103757,16.6557245 33.1978533,16.6557245 C33.1659213,16.6557245 32.9689624,16.6557245 32.9620751,16.3567084 C32.9605546,16.2078712 32.9903399,16.0544723 33.0275492,15.886136 Z M38.5238819,14.3250447 L38.4851521,14.279517 C37.9892665,14.3830054 37.8994633,14.3993739 37.4439177,14.4627013 L37.4103757,14.4972272 C37.4088551,14.5028623 37.4075134,14.511449 37.4051878,14.5192308 L37.4035778,14.511449 C37.0644007,15.3169052 37.0743292,15.1432021 36.7983005,15.7772809 C36.7966905,15.7484794 36.7966905,15.7304114 36.7951699,15.6997317 L36.7260286,14.3250447 L36.6826476,14.279517 C36.1631485,14.3830054 36.1508945,14.3993739 35.6711986,14.4627013 L35.6338104,14.4972272 C35.6285331,14.5136852 35.6285331,14.5316637 35.6254025,14.5513417 L35.6285331,14.5583184 C35.688551,14.8737925 35.6741503,14.8034884 35.7342576,15.3013417 C35.7623435,15.5456172 35.7997317,15.7913238 35.8277281,16.0326476 C35.8750447,16.4364937 35.9015206,16.6353309 35.9593023,17.25161 C35.6353309,17.8019678 35.5586762,18.0101968 35.24678,18.4932021 L35.2489267,18.4980322 L35.0292487,18.8555456 C35.0042039,18.8932916 34.9813953,18.9191413 34.9494633,18.9301431 C34.9144007,18.9479428 34.868873,18.9511628 34.8055456,18.9511628 L34.6838998,18.9511628 L34.5030411,19.570483 L35.1235242,19.5814848 C35.487746,19.5798748 35.7167263,19.4045617 35.8399821,19.168873 L36.2301431,18.4805903 L36.2239714,18.4805903 L36.2650268,18.4321109 C36.5274597,17.8504472 38.5238819,14.3250447 38.5238819,14.3250447 Z M31.9749553,22.4586762 L31.7117174,22.4586762 L32.6860465,19.1415027 L33.0092129,19.1415027 L33.1118068,18.7997317 L33.1217352,19.1797853 C33.1096601,19.4146691 33.2891771,19.622898 33.7607335,19.5883721 L34.3060823,19.5883721 L34.4937388,18.9496422 L34.288551,18.9496422 C34.1705725,18.9496422 34.1158318,18.9189624 34.1226297,18.8533095 L34.1127013,18.4666369 L33.1028623,18.4666369 L33.1028623,18.4686941 C32.7763864,18.4756708 31.8013417,18.5008945 31.6039356,18.5550089 C31.3650268,18.6183363 31.1132379,18.8047406 31.1132379,18.8047406 L31.2121646,18.4626118 L30.2675313,18.4626118 L30.0706619,19.1415027 L29.0833631,22.5093918 L28.891771,22.5093918 L28.7039356,23.1434705 L30.5854204,23.1434705 L30.5223614,23.3549195 L31.4494633,23.3549195 L31.5110018,23.1434705 L31.7711091,23.1434705 L31.9749553,22.4586762 Z M31.2030411,19.8154741 C31.0516995,19.8585868 30.7702147,19.9892665 30.7702147,19.9892665 L31.0205725,19.1415027 L31.7711091,19.1415027 L31.5900716,19.7592129 C31.5900716,19.7592129 31.358229,19.7731664 31.2030411,19.8154741 Z M31.2174419,21.0266547 C31.2174419,21.0266547 30.9816637,21.0570662 30.8264758,21.0932021 C30.6736136,21.1408766 30.3870304,21.2912343 30.3870304,21.2912343 L30.6456172,20.4089445 L31.4000894,20.4089445 L31.2174419,21.0266547 Z M30.7968694,22.466458 L30.0440072,22.466458 L30.262254,21.7219141 L31.0127907,21.7219141 L30.7968694,22.466458 Z M32.6100179,20.4089445 L33.6952594,20.4089445 L33.5392665,20.9288014 L32.4396243,20.9288014 L32.2745081,21.4972272 L33.2367621,21.4972272 L32.5081395,22.55322 C32.4571556,22.6307692 32.411449,22.658229 32.3605546,22.6801431 C32.3095707,22.7067979 32.242576,22.7380143 32.1651163,22.7380143 L31.8982111,22.7380143 L31.7147585,23.3605546 L32.4129696,23.3605546 C32.7758497,23.3605546 32.9902504,23.1906082 33.1485689,22.9675313 L33.6481216,22.2635957 L33.7553667,22.9783542 C33.7781753,23.112254 33.8716458,23.1906082 33.9348837,23.2210197 C34.0048301,23.2571556 34.0770125,23.3190519 34.1790698,23.3282648 C34.2884615,23.3330948 34.3675313,23.3368515 34.4201252,23.3368515 L34.7631485,23.3368515 L34.9691413,22.6402504 L34.8338104,22.6402504 C34.7560823,22.6402504 34.6223614,22.6268336 34.5995528,22.6017889 C34.5768336,22.571288 34.5768336,22.5244186 34.5645796,22.4530411 L34.4557245,21.7367621 L34.0100179,21.7367621 L34.2055456,21.4972272 L35.3030411,21.4972272 L35.4718247,20.9288014 L34.4557245,20.9288014 L34.6140429,20.4089445 L35.6270125,20.4089445 L35.8148479,19.7677996 L32.7948122,19.7677996 L32.6100179,20.4089445 Z M23.4440966,22.6112701 L23.6974061,21.7438283 L24.7384615,21.7438283 L24.928712,21.0986583 L23.8866726,21.0986583 L24.0457066,20.5647585 L25.0639535,20.5647585 L25.2526834,19.9399821 L22.7048301,19.9399821 L22.5201252,20.5647585 L23.0989267,20.5647585 L22.9445438,21.0986583 L22.3641324,21.0986583 L22.1718247,21.7548301 L22.7504472,21.7548301 L22.4127907,22.902415 C22.367263,23.0543828 22.4342576,23.112254 22.4766547,23.1828265 C22.5201252,23.25161 22.5641324,23.2970483 22.6629696,23.322898 C22.7650268,23.3463327 22.8348837,23.3603757 22.9299642,23.3603757 L24.1035778,23.3603757 L24.3126118,22.6457066 L23.7923971,22.7192308 C23.6919499,22.7192308 23.4137746,22.7067979 23.4440966,22.6112701 Z M23.5635063,18.4587657 L23.2997317,18.9495528 C23.2432916,19.0567979 23.1923971,19.1233453 23.1466905,19.154025 C23.1063506,19.1798748 23.0265653,19.1906977 22.9109123,19.1906977 L22.7732558,19.1906977 L22.5892665,19.8186047 L23.0464222,19.8186047 C23.2661896,19.8186047 23.4350626,19.7355993 23.515653,19.6940966 C23.6022361,19.6464222 23.6250447,19.673703 23.6920394,19.6071556 L23.8464222,19.4694991 L25.2738819,19.4694991 L25.4633274,18.815653 L24.4184258,18.815653 L24.6008945,18.4587657 L23.5635063,18.4587657 Z M25.6710197,22.6237925 C25.6466011,22.587746 25.6641324,22.5242397 25.7013417,22.3919499 L26.0915027,21.0625224 L27.479517,21.0625224 C27.6817531,21.0595707 27.8278175,21.0571556 27.9228086,21.0500894 C28.0248658,21.0390877 28.1357782,21.00161 28.2567084,20.9342576 C28.3814848,20.8637746 28.4453488,20.789356 28.4992844,20.704025 C28.5594812,20.6187835 28.6560823,20.4324687 28.7389982,20.1449911 L29.2294275,18.4627013 L27.7890877,18.471288 C27.7890877,18.471288 27.3455277,18.5386404 27.1502683,18.6129696 C26.95322,18.695975 26.6717352,18.9276386 26.6717352,18.9276386 L26.8017889,18.466458 L25.9119857,18.466458 L24.6663685,22.7192308 C24.6221825,22.884347 24.592576,23.0042039 24.5857373,23.0762075 C24.5834526,23.1537567 24.6807692,23.2305009 24.7438283,23.2884615 C24.8184258,23.3463327 24.9286225,23.336941 25.034347,23.3463327 C25.1455277,23.3550089 25.3035778,23.3603757 25.5218247,23.3603757 L26.2056351,23.3603757 L26.4154741,22.6308587 L25.8033989,22.6903399 C25.7379249,22.6903399 25.6906082,22.6542934 25.6710197,22.6237925 Z M26.3432916,20.1646691 L27.8011628,20.1646691 L27.7084973,20.4636852 C27.6954383,20.4706619 27.6642218,20.4488372 27.5159213,20.4669052 L26.2534884,20.4669052 L26.3432916,20.1646691 Z M26.6353309,19.1617174 L28.1054562,19.1617174 L27.9997317,19.5219141 C27.9997317,19.5219141 27.3067979,19.5149374 27.1957961,19.5359571 C26.7075134,19.622898 26.4222719,19.8915027 26.4222719,19.8915027 L26.6353309,19.1617174 Z M27.7410555,21.4650268 C27.7289803,21.5097496 27.7099284,21.5370304 27.6832737,21.557424 C27.6536673,21.577102 27.605814,21.5840787 27.534347,21.5840787 L27.3265653,21.5840787 L27.3388193,21.2199463 L26.4747764,21.2199463 L26.4397138,23.0002683 C26.4383721,23.128712 26.4504472,23.2031306 26.541771,23.2626118 C26.6330948,23.3370304 26.9144007,23.3464222 27.2931127,23.3464222 L27.8345259,23.3464222 L28.0300537,22.6800537 L27.5586762,22.7067084 L27.4019678,22.7161002 C27.3805009,22.7067084 27.3601073,22.6980322 27.3372987,22.6745975 C27.3174419,22.6543828 27.2839893,22.6668157 27.2894454,22.5382826 L27.2931127,22.081932 L27.7873882,22.0609123 C28.0543828,22.0609123 28.1684258,21.9715564 28.2658318,21.8863148 C28.3586762,21.8047406 28.3889982,21.7110018 28.4240608,21.5840787 L28.5070662,21.1800537 L27.8277281,21.1800537 L27.7410555,21.4650268 Z" id="Shape" fill="#FEFEFE" fill-rule="nonzero"></path>
    </g>
</svg>