<?xml version="1.0" encoding="UTF-8"?>
<svg width="51px" height="35px" viewBox="0 0 51 35" version="1.1" xmlns="http://www.w3.org/2000/svg" xmlns:xlink="http://www.w3.org/1999/xlink">
    <title>UpNetwork</title>
    <g id="UpNetwork" stroke="none" stroke-width="1" fill="none" fill-rule="evenodd">
        <rect id="Rectangle" fill="#FFFFFF" fill-rule="nonzero" x="0" y="0" width="50.9838998" height="34.8837209" rx="5.5"></rect>
        <rect id="Rectangle" stroke="#E7E8ED" x="0" y="0" width="50.9838998" height="34.8837209" rx="5.5"></rect>
        <g id="UP-Logo---Gold" transform="translate(3, 13)" fill="#5E00FF" fill-rule="nonzero">
            <path d="M12.836052,1.89831106 C12.836052,1.86136315 12.8465967,1.83233757 12.8677137,1.81122054 C12.8888308,1.7901035 12.9178563,1.77955879 12.9548042,1.77955879 L14.2056918,1.77955879 C14.2426812,1.77955879 14.2716653,1.7901035 14.2927824,1.81122054 C14.3138994,1.83233757 14.3245269,1.86136315 14.3245269,1.89831106 L14.3245269,7.20277229 C14.3245269,7.2397202 14.3138994,7.26874577 14.2927824,7.28986281 C14.2716653,7.31097984 14.2426812,7.32153836 14.2056918,7.32153836 L13.0102192,7.32153836 C12.9468819,7.32153836 12.8993893,7.29513516 12.8677137,7.24235638 L11.2526194,4.55054167 C11.2420609,4.5347108 11.2315161,4.52942464 11.2209576,4.5347108 C11.2103991,4.5347108 11.2051268,4.54526931 11.2051268,4.56637255 L11.2209576,7.20277229 C11.2209576,7.2397202 11.2103991,7.26874577 11.1892821,7.28986281 C11.1681788,7.31097984 11.1391395,7.32153836 11.1022054,7.32153836 L9.85129016,7.32153836 C9.81434225,7.32153836 9.78531668,7.31097984 9.76421345,7.28986281 C9.74309641,7.26874577 9.73253789,7.2397202 9.73253789,7.20277229 L9.73253789,1.89831106 C9.73253789,1.86136315 9.74309641,1.83233757 9.76421345,1.81122054 C9.78531668,1.7901035 9.81434225,1.77955879 9.85129016,1.77955879 L11.0467766,1.77955879 C11.1101139,1.77955879 11.1576203,1.80594818 11.1892821,1.85872697 L12.7964541,4.55054167 C12.8070126,4.56637255 12.8175711,4.57429489 12.8281296,4.57429489 C12.8386882,4.56902253 12.8439605,4.55582783 12.8439605,4.5347108 L12.836052,1.89831106 Z" id="Path"></path>
            <path d="M18.9575768,2.93544733 C18.9575768,2.97239524 18.9470873,3.00143461 18.9259703,3.02253785 C18.9048533,3.04365488 18.8757311,3.0542134 18.8388798,3.0542134 L16.4715635,3.0542134 C16.4452017,3.0542134 16.4320898,3.0674081 16.4320898,3.09379749 L16.4320898,3.83800046 C16.4320898,3.86438985 16.4452017,3.87758455 16.4715635,3.87758455 L17.93623,3.87758455 C17.9732194,3.87758455 18.0022035,3.88814306 18.0233206,3.9092601 C18.0444376,3.93036333 18.0550651,3.95940271 18.0550651,3.99635062 L18.0550651,5.02556455 C18.0550651,5.06251246 18.0444376,5.09155183 18.0233206,5.11265507 C18.0022035,5.1337721 17.9732194,5.14433062 17.93623,5.14433062 L16.4715635,5.14433062 C16.4452017,5.14433062 16.4320898,5.15752532 16.4320898,5.18391471 L16.4320898,6.00728586 C16.4320898,6.03367525 16.4452017,6.04688375 16.4715635,6.04688375 L18.8388798,6.04688375 C18.8757311,6.04688375 18.9048533,6.05742846 18.9259703,6.0785455 C18.9470873,6.09966253 18.9575768,6.12868811 18.9575768,6.16563602 L18.9575768,7.20277229 C18.9575768,7.2397202 18.9470873,7.26874577 18.9259703,7.28986281 C18.9048533,7.31097984 18.8757311,7.32153836 18.8388798,7.32153836 L15.062381,7.32153836 C15.0253917,7.32153836 14.9964075,7.31097984 14.9752905,7.28986281 C14.9541734,7.26874577 14.9435459,7.2397202 14.9435459,7.20277229 L14.9435459,1.89831106 C14.9435459,1.86136315 14.9541734,1.83233757 14.9752905,1.81122054 C14.9964075,1.7901035 15.0253917,1.77955879 15.062381,1.77955879 L18.8388798,1.77955879 C18.8757311,1.77955879 18.9048533,1.7901035 18.9259703,1.81122054 C18.9470873,1.83233757 18.9575768,1.86136315 18.9575768,1.89831106 L18.9575768,2.93544733 Z" id="Path"></path>
            <path d="M23.59946,1.77955879 C23.6364494,1.77955879 23.6654335,1.7901035 23.6865506,1.81122054 C23.7076676,1.83233757 23.7182951,1.86136315 23.7182951,1.89831106 L23.7182951,2.94336967 C23.7182951,2.98031758 23.7076676,3.00934315 23.6865506,3.03046019 C23.6654335,3.05156342 23.6364494,3.06212194 23.59946,3.06212194 L22.2693629,3.06212194 C22.2430011,3.06212194 22.2298892,3.07531663 22.2298892,3.10170603 L22.2298892,7.20277229 C22.2298892,7.2397202 22.2192617,7.26874577 22.1981446,7.28986281 C22.1770276,7.31097984 22.1480434,7.32153836 22.1110541,7.32153836 L20.8601803,7.32153836 C20.823191,7.32153836 20.7942068,7.31097984 20.7730898,7.28986281 C20.7519728,7.26874577 20.7413452,7.2397202 20.7413452,7.20277229 L20.7413452,3.10170603 C20.7413452,3.07531663 20.7282333,3.06212194 20.7018716,3.06212194 L19.4113861,3.06212194 C19.3743968,3.06212194 19.3454126,3.05156342 19.3242956,3.03046019 C19.3031785,3.00934315 19.292551,2.98031758 19.292551,2.94336967 L19.292551,1.89831106 C19.292551,1.86136315 19.3031785,1.83233757 19.3242956,1.81122054 C19.3454126,1.7901035 19.3743968,1.77955879 19.4113861,1.77955879 L23.59946,1.77955879 Z" id="Path"></path>
            <path d="M25.7429081,7.32153836 C25.7111636,7.32153836 25.6821794,7.31361602 25.6558176,7.29778514 C25.6293178,7.27666811 25.6135835,7.25027872 25.6082008,7.21860316 L24.0407095,1.91414193 C24.0354647,1.90358341 24.0327043,1.89038872 24.0327043,1.87455784 C24.0327043,1.81122054 24.0696936,1.77955879 24.1435342,1.77955879 L25.4895037,1.77955879 C25.5580996,1.77955879 25.6003336,1.81385672 25.6162059,1.88248018 L26.2891906,4.46345115 C26.2944354,4.47929583 26.3023025,4.48984055 26.3129301,4.49512671 C26.3234196,4.49512671 26.3314247,4.48456819 26.3366695,4.46345115 L26.8670797,1.88248018 C26.882952,1.81385672 26.9278084,1.77955879 27.0016491,1.77955879 L28.1575652,1.77955879 C28.2261611,1.77955879 28.2683951,1.81385672 28.2842674,1.88248018 L28.8780287,4.46345115 C28.8832735,4.48456819 28.8912787,4.49512671 28.9017682,4.49512671 C28.9123957,4.49512671 28.9202628,4.48456819 28.9255076,4.46345115 L29.5192689,1.88248018 C29.5351412,1.81385672 29.5773753,1.77955879 29.6459711,1.77955879 L30.9998077,1.77955879 C31.0420418,1.77955879 31.071026,1.79275348 31.0868982,1.81914288 C31.1080102,1.84024611 31.11326,1.87192166 31.1027705,1.91414193 L29.69345,7.21860316 C29.6777157,7.28722663 29.6354816,7.32153836 29.5668858,7.32153836 L28.3001397,7.32153836 C28.2261611,7.32153836 28.1813046,7.28722663 28.1654323,7.21860316 L27.5954104,4.49512671 C27.5901656,4.47929583 27.5822985,4.47137349 27.571671,4.47137349 C27.5611815,4.47137349 27.5531763,4.47929583 27.5479316,4.49512671 L27.0491279,7.21069463 C27.0333936,7.28459045 26.9911595,7.32153836 26.9225637,7.32153836 L25.7429081,7.32153836 Z" id="Path"></path>
            <path d="M33.4104622,7.41653741 C32.9723872,7.41653741 32.5844135,7.32944689 32.2466789,7.15527966 C31.9140511,6.97581247 31.65554,6.72774941 31.4707314,6.41106289 C31.2860609,6.08910402 31.1937256,5.71700253 31.1937256,5.29475844 L31.1937256,3.80633871 C31.1937256,3.39463933 31.2860609,3.03046019 31.4707314,2.71377367 C31.65554,2.39708715 31.9140511,2.15166027 32.2466789,1.97747924 C32.5844135,1.803312 32.9723872,1.71622148 33.4104622,1.71622148 C33.8537819,1.71622148 34.2417557,1.803312 34.5742455,1.97747924 C34.9121181,2.15166027 35.1733896,2.39708715 35.3580601,2.71377367 C35.5427307,3.03046019 35.635204,3.39463933 35.635204,3.80633871 L35.635204,5.29475844 C35.635204,5.71700253 35.5427307,6.08910402 35.3580601,6.41106289 C35.1733896,6.72774941 34.9121181,6.97581247 34.5742455,7.15527966 C34.2417557,7.32944689 33.8537819,7.41653741 33.4104622,7.41653741 Z M33.4104622,6.1418828 C33.6321221,6.1418828 33.8089255,6.07062316 33.9408725,5.92811768 C34.0780642,5.78033984 34.1467981,5.58504176 34.1467981,5.34225107 L34.1467981,3.79049403 C34.1467981,3.54770333 34.0780642,3.35505524 33.9408725,3.21254976 C33.8089255,3.06475811 33.6321221,2.9908761 33.4104622,2.9908761 C33.1940471,2.9908761 33.0172437,3.06475811 32.880052,3.21254976 C32.748105,3.35505524 32.6821315,3.54770333 32.6821315,3.79049403 L32.6821315,5.34225107 C32.6821315,5.58504176 32.748105,5.78033984 32.880052,5.92811768 C33.0172437,6.07062316 33.1940471,6.1418828 33.4104622,6.1418828 Z" id="Shape"></path>
            <path d="M39.0956374,7.32153836 C39.0270415,7.32153836 38.9821851,7.29249898 38.961068,7.23444784 L38.0901628,5.2234988 C38.0796733,5.20238176 38.0638011,5.19182325 38.042684,5.19182325 L37.7101942,5.19182325 C37.6838324,5.19182325 37.6705825,5.20501794 37.6705825,5.23142114 L37.6705825,7.20277229 C37.6705825,7.2397202 37.660093,7.26874577 37.638976,7.28986281 C37.617859,7.31097984 37.5887368,7.32153836 37.5518855,7.32153836 L36.3008737,7.32153836 C36.2640224,7.32153836 36.2349002,7.31097984 36.2139212,7.28986281 C36.1928041,7.26874577 36.1821766,7.2397202 36.1821766,7.20277229 L36.1821766,1.89831106 C36.1821766,1.86136315 36.1928041,1.83233757 36.2139212,1.81122054 C36.2349002,1.7901035 36.2640224,1.77955879 36.3008737,1.77955879 L38.6997965,1.77955879 C39.0587861,1.77955879 39.3727812,1.85344081 39.6419199,2.00123245 C39.9164413,2.14902409 40.1276117,2.35750306 40.2752929,2.62668315 C40.4283569,2.89059088 40.5049579,3.19671888 40.5049579,3.54506715 C40.5049579,3.89342922 40.4178674,4.19955722 40.2436864,4.46345115 C40.0747501,4.72208653 39.8398403,4.91208464 39.5390951,5.03348689 C39.5125953,5.04404541 39.5047282,5.06251246 39.5153557,5.08890185 L40.5208302,7.17901907 C40.5313197,7.21069463 40.5365645,7.22916168 40.5365645,7.23444784 C40.5365645,7.26083723 40.526075,7.28194047 40.5049579,7.29778514 C40.4838409,7.31361602 40.4574791,7.32153836 40.4257345,7.32153836 L39.0956374,7.32153836 Z M37.7101942,3.0542134 C37.6838324,3.0542134 37.6705825,3.0674081 37.6705825,3.09379749 L37.6705825,4.02009003 C37.6705825,4.04649322 37.6838324,4.05968792 37.7101942,4.05968792 L38.4543972,4.05968792 C38.6233335,4.05968792 38.7605252,4.01481767 38.8661104,3.92509097 C38.9716956,3.83009192 39.0244191,3.70868967 39.0244191,3.56089803 C39.0244191,3.40783403 38.9716956,3.28644558 38.8661104,3.19671888 C38.7605252,3.10170603 38.6233335,3.0542134 38.4543972,3.0542134 L37.7101942,3.0542134 Z" id="Shape"></path>
            <path d="M41.1718698,7.32153836 C41.1348805,7.32153836 41.1058963,7.31097984 41.0847793,7.28986281 C41.0636622,7.26874577 41.0530347,7.2397202 41.0530347,7.20277229 L41.0530347,1.89831106 C41.0530347,1.86136315 41.0636622,1.83233757 41.0847793,1.81122054 C41.1058963,1.7901035 41.1348805,1.77955879 41.1718698,1.77955879 L42.4227436,1.77955879 C42.4597329,1.77955879 42.4887171,1.7901035 42.5098341,1.81122054 C42.5309511,1.83233757 42.5414406,1.86136315 42.5414406,1.89831106 L42.5414406,3.79049403 C42.5414406,3.80633871 42.5468234,3.81689722 42.5573129,3.82216958 C42.5678024,3.82744194 42.57843,3.82216958 42.5889195,3.80633871 L43.9664955,1.85080463 C43.99824,1.803312 44.0483412,1.77955879 44.1169371,1.77955879 L45.5341248,1.77955879 C45.5974759,1.77955879 45.6292205,1.803312 45.6292205,1.85080463 C45.6292205,1.87192166 45.6212153,1.89567488 45.605343,1.92206427 L43.9586283,4.21010194 C43.9481388,4.22594662 43.9481388,4.24441367 43.9586283,4.26553071 L45.660827,7.17901907 C45.6766993,7.20013611 45.6845664,7.22388932 45.6845664,7.25027872 C45.6845664,7.29778514 45.6501995,7.32153836 45.5816036,7.32153836 L44.1802882,7.32153836 C44.1116923,7.32153836 44.0642135,7.29513516 44.0378517,7.24235638 L42.9452867,5.29475844 C42.9400419,5.27891376 42.9320368,5.27100523 42.9215473,5.27100523 C42.9109198,5.27100523 42.9004302,5.27891376 42.8898027,5.29475844 L42.5573129,5.80144307 C42.5468234,5.8225601 42.5414406,5.83839098 42.5414406,5.8489495 L42.5414406,7.20277229 C42.5414406,7.2397202 42.5309511,7.26874577 42.5098341,7.28986281 C42.4887171,7.31097984 42.4597329,7.32153836 42.4227436,7.32153836 L41.1718698,7.32153836 Z" id="Path"></path>
            <g id="Group-2">
                <path d="M5.71258589,3.72399607 C5.97964048,3.92413864 6.27413341,4.04835649 6.56084201,4.21391129 C6.63328863,4.25259825 6.66132046,4.30272705 6.66214858,4.38418636 C6.67054018,5.16511641 6.6817888,5.94625348 6.69324445,6.72718353 C6.69427959,6.79369529 6.67851773,6.84546653 6.61731973,6.88168294 C6.17488334,7.14323053 5.73366152,7.40680701 5.2910181,7.66773352 C5.15697323,7.74673607 5.13956893,7.73526662 5.13752624,7.57891775 C5.12729897,6.83892439 5.11460114,6.09891723 5.11010169,5.35870303 C5.10928738,5.23714896 5.06917881,5.16776639 4.96316577,5.10985326 C3.84702695,4.49939152 2.7404943,3.87195334 1.63049736,3.2504362 C1.17351919,2.9964659 0.7171566,2.7404529 0.258134363,2.49078882 C0.167680301,2.43593973 0.165634847,2.40115873 0.253836425,2.34897343 C0.464008894,2.22434152 0.675818278,2.10258042 0.885580828,1.97712038 C1.50709382,1.59648927 3.38493653,0.450870791 4.1715944,0.0309350818 C4.2501829,-0.0110175248 4.34431242,-0.010198943 4.42227983,0.0327768185 C5.02497106,0.365941664 7.64690632,1.81585801 8.08423598,2.05837266 C8.11268187,2.07413453 8.11451753,2.11445012 8.08771408,2.13286197 C7.76743904,2.35183044 6.22276242,3.40597076 5.71258589,3.72399607 Z M4.31934464,1.49947513 C4.31934464,1.49947513 3.60267663,1.92493508 3.17517398,2.19548157 C3.09494305,2.24029661 3.09637845,2.28389708 3.17496695,2.327884 C3.47067445,2.4934526 3.77518762,2.645095 4.06128894,2.82579057 C4.2432267,2.94060927 4.37767182,2.9491941 4.5681944,2.82456219 C4.81050203,2.66596359 5.55438755,2.20980803 5.56769267,2.19527454 C5.57751968,2.18463321 4.31934464,1.49947513 4.31934464,1.49947513 Z" id="Shape"></path>
                <path d="M1.66251796,6.85770889 C1.66251796,6.88728654 1.67916315,6.91436603 1.70555255,6.92772635 L2.75958245,7.46133865 C2.81178155,7.48776945 2.87349022,7.4498278 2.87349022,7.39132119 L2.87349022,4.72773154 C2.87349022,4.66824499 2.93710356,4.63038615 2.98938548,4.65876303 L4.67968683,5.57578063 C4.70498587,5.58949981 4.72073393,5.61597201 4.72073393,5.64476295 L4.72073393,7.98426821 C4.72073393,8.01203781 4.70606242,8.0377509 4.68214358,8.05185653 L3.09361806,8.98910784 C3.07145207,9.00219212 3.04426216,9.00357232 3.0208816,8.99279297 L0.0456156945,7.6209724 C0.0178095278,7.60815035 0,7.58032555 0,7.54969895 L0,3.17306228 C0,3.11393458 0.062907648,3.07604814 0.115170102,3.10370731 L1.62073936,3.9002198 C1.64643865,3.91381475 1.66251796,3.94050779 1.66251796,3.96958857 L1.66251796,6.85770889 Z" id="Path"></path>
            </g>
        </g>
    </g>
</svg>