<?xml version="1.0" encoding="UTF-8"?>
<svg width="51px" height="35px" viewBox="0 0 51 35" version="1.1" xmlns="http://www.w3.org/2000/svg" xmlns:xlink="http://www.w3.org/1999/xlink">
    <title>Alipay+</title>
    <g id="Alipay+" stroke="none" stroke-width="1" fill="none" fill-rule="evenodd">
        <rect id="Rectangle" fill="#FFFFFF" fill-rule="nonzero" x="0" y="0" width="50.9838998" height="34.8837209" rx="5.5"></rect>
        <rect id="Rectangle" stroke="#E7E8ED" x="0" y="0" width="50.9838998" height="34.8837209" rx="5.5"></rect>
        <g id="alipay+" transform="translate(2, 13)" fill-rule="nonzero">
            <path d="M8.66181818,0.262545455 L8.66181818,8.97163636 L10.5465455,8.97163636 L10.5465455,0.262545455 L8.66181818,0.262545455 Z M0,8.97163636 L1.74181818,8.97163636 L2.21890909,7.32509091 L5.21381818,7.32509091 L5.66690909,8.97163636 L7.89745455,8.97163636 L5.35672727,0.560727273 L2.82763636,0.560727273 L0,8.97163636 Z M2.61309091,5.95345455 L3.73418182,2.076 L3.78181818,2.076 L4.84363636,5.95309091 L2.61309091,5.95309091 L2.61309091,5.95345455 Z M17.9672727,9.05454545 C19.6490909,9.05454545 21.1643636,7.81418182 21.1643636,5.60654545 C21.1643636,3.62836364 20.0669091,2.44545455 18.7065455,2.44545455 C18.0149091,2.44545455 17.4778182,2.708 16.8690909,3.20909091 L16.8690909,2.57636364 L14.9847273,2.57636364 L14.9847273,11 L16.8690909,11 L16.8690909,8.91163636 C17.2269091,9.00909091 17.5963636,9.05709091 17.9672727,9.05490909 L17.9672727,9.05454545 Z M25.6385455,8.97127273 L27.5236364,8.97127273 L27.2967273,7.37236364 L27.2967273,4.7 C27.2967273,3.24545455 26.4378182,2.44545455 24.9221818,2.44545455 C23.9563636,2.44545455 23.288,2.61272727 22.0712727,2.98218182 L22.4050909,4.44945455 C23.5149091,3.94836364 24.004,3.73381818 24.5167273,3.73381818 C25.1374545,3.73381818 25.4112727,4.17527273 25.4112727,4.85563636 L25.4112727,4.90290909 C23.2523636,5.31018182 22.584,5.53490909 22.1665455,5.95018182 C21.8567273,6.26072727 21.7250909,6.70218182 21.7250909,7.21563636 C21.7250909,8.444 22.6792727,9.1 23.5741818,9.1 C24.2425455,9.1 24.7789091,8.84981818 25.5069091,8.30109091 L25.6385455,8.96909091 L25.6385455,8.97127273 L25.6385455,8.97127273 Z M11.8349091,2.57672727 L11.8349091,8.97163636 L13.72,8.97163636 L13.72,2.57672727 L11.8349091,2.57672727 Z M34.0130909,2.58909091 L34.0254545,2.57672727 L32.248,2.57672727 L31.1272727,6.46618182 L31.0690909,6.46618182 L29.7781818,2.57672727 L27.6665455,2.57672727 L30.2072727,8.99563636 L29.1454545,10.952 L29.1454545,11 L30.8043636,11 L34.0130909,2.58909091 L34.0130909,2.58909091 Z M17.9912727,3.91345455 C18.6949091,3.91345455 19.2552727,4.47345455 19.2552727,5.66690909 C19.2552727,7.19418182 18.4327273,7.87381818 17.5138182,7.87381818 C17.2951994,7.87629971 17.0775756,7.84401823 16.8690909,7.77818182 L16.8690909,4.31890909 C17.2632727,4.04436364 17.5854545,3.91163636 17.9909091,3.91163636 L17.9909091,3.91345455 L17.9912727,3.91345455 Z M23.5501818,7.02727273 C23.5501818,6.848 23.5865455,6.66872727 23.7294545,6.52545455 C23.9563636,6.29927273 24.3974545,6.13236364 25.4116364,5.89381818 L25.4116364,7.42036364 C24.9105455,7.69527273 24.6243636,7.80218182 24.2901818,7.80218182 C23.8363636,7.80218182 23.5501818,7.504 23.5501818,7.02727273 L23.5501818,7.02727273 Z" id="Shape" fill="#3E3A39"></path>
            <path d="M11.6945455,1.03781818 C11.6945455,1.65818182 12.1476364,2.076 12.7803636,2.076 C13.4127273,2.076 13.8658182,1.65818182 13.8658182,1.03781818 C13.8629091,0.429454545 13.4098182,0 12.7774545,0 C12.1447273,0 11.6945455,0.429090909 11.6945455,1.03781818 Z M46.8945455,6.67636364 L42.6141818,6.67636364 C41.4361082,6.67636364 40.4810909,5.72134631 40.4810909,4.54327247 L45.864,4.54327247 C46.1371248,4.54307977 46.3991397,4.65139316 46.5924045,4.84438515 C46.7856693,5.03737715 46.8943526,5.29923885 46.8945455,5.57236364 L46.8945455,6.67636364 L46.8945455,6.67636364 Z" id="Shape" fill="#1677FF"></path>
            <path d="M36.2014545,4.54327273 L39.4436364,4.54327273 L39.4436364,6.67636364 L37.2327273,6.67636364 C36.6639744,6.67636364 36.2029091,6.21529833 36.2029091,5.64654545 L36.2029091,4.54109091 L36.2014545,4.54327273 Z" id="Path" fill="#00B6FF"></path>
            <path d="M42.6134545,1.29272727 L42.6134545,6.67563686 C42.0475977,6.67602225 41.5047741,6.45155673 41.1044483,6.05164006 C40.7041224,5.65172338 40.4791019,5.10912969 40.4789091,4.54327273 L40.4789091,0.264 L41.5843636,0.264 C42.1525486,0.264401119 42.6130534,0.724905926 42.6134545,1.29309091 L42.6134545,1.29272727 Z" id="Path" fill="#1677FF"></path>
            <path d="M42.6141818,7.72254545 L42.6141818,10.9556364 L41.5087273,10.9556364 C40.9399744,10.9556364 40.4789091,10.4945711 40.4789091,9.92581818 L40.4789091,7.72218182 L42.6141818,7.72218182 L42.6141818,7.72254545 Z" id="Path" fill="#00B6FF"></path>
        </g>
    </g>
</svg>