<?xml version="1.0" encoding="UTF-8"?>
<svg width="10px" height="37px" viewBox="0 0 10 37" version="1.1" xmlns="http://www.w3.org/2000/svg" xmlns:xlink="http://www.w3.org/1999/xlink">
    <title>􀆓</title>
    <g id="Page-1" stroke="none" stroke-width="1" fill="none" fill-rule="evenodd">
        <g id="History/transcations-list" transform="translate(-351, -196)" fill="#0052D9" fill-rule="nonzero">
            <g id="transcation" transform="translate(0, 176.25)">
                <g id="􀆓" transform="translate(351.387, 19.8782)">
                    <path d="M1.65172577,35.9709549 C1.575737,36.1725998 1.46284103,36.3166809 1.31303787,36.4031982 C1.16323471,36.4897156 1.02333069,36.5329742 0.893325806,36.5329742 C0.631027222,36.5329742 0.416564941,36.4480019 0.249938965,36.2780571 C0.0833129883,36.1081123 0,35.8919907 0,35.6296921 C0,35.5051804 0.024433136,35.3666496 0.073299408,35.2140999 C0.12216568,35.0615501 0.166053772,34.9184418 0.204963684,34.7847748 L7.13733673,17.7147675 L7.13733673,18.8116837 L0.204963684,1.74201965 C0.166053772,1.61224365 0.12216568,1.47171021 0.073299408,1.32041931 C0.024433136,1.16912842 0,1.02802277 0,0.897102356 C0,0.634803772 0.0833129883,0.419712067 0.249938965,0.25182724 C0.416564941,0.0839424133 0.631027222,0 0.893325806,0 C1.02333069,0 1.16323471,0.0421714783 1.31303787,0.126514435 C1.46284103,0.210857391 1.575737,0.353965759 1.65172577,0.555839539 L8.32111359,16.9587708 C8.4053421,17.1595001 8.48258972,17.3792839 8.55285645,17.6181221 C8.62312317,17.8569603 8.65825653,18.0746841 8.65825653,18.2712936 C8.65825653,18.4573746 8.62312317,18.6688042 8.55285645,18.9055824 C8.48258972,19.1423607 8.4053421,19.36306 8.32111359,19.5676804 L1.65172577,35.9709549 Z" id="Path"></path>
                </g>
            </g>
        </g>
    </g>
</svg>