<?xml version="1.0" encoding="UTF-8"?>
<svg width="100px" height="101px" viewBox="0 0 100 101" version="1.1" xmlns="http://www.w3.org/2000/svg" xmlns:xlink="http://www.w3.org/1999/xlink">
    <title>􀁣</title>
    <g id="Symbols" stroke="none" stroke-width="1" fill="none" fill-rule="evenodd">
        <g id="payment-status/sucess" transform="translate(-25.000000, -24.000000)" fill="#00C260" fill-rule="nonzero">
            <g id="􀁣" transform="translate(25.195312, 24.941406)">
                <path d="M49.8046875,99.609375 C77.0507812,99.609375 99.609375,77.0019531 99.609375,49.8046875 C99.609375,22.5585938 77.0019531,0 49.7558594,0 C22.5585938,0 0,22.5585938 0,49.8046875 C0,77.0019531 22.6074219,99.609375 49.8046875,99.609375 Z M44.3359375,73.6816406 C42.6757812,73.6816406 41.3085938,72.9980469 40.0390625,71.2890625 L27.7832031,56.25 C27.0507812,55.2734375 26.6113281,54.1992188 26.6113281,53.0761719 C26.6113281,50.8789062 28.3203125,49.0722656 30.5175781,49.0722656 C31.9335938,49.0722656 33.0078125,49.5117188 34.2285156,51.1230469 L44.140625,63.9160156 L64.9902344,30.4199219 C65.9179688,28.9550781 67.1875,28.1738281 68.4570312,28.1738281 C70.6054688,28.1738281 72.6074219,29.6386719 72.6074219,31.9335938 C72.6074219,33.0078125 71.9726562,34.1308594 71.3867188,35.15625 L48.4375,71.2890625 C47.4121094,72.9003906 45.9960938,73.6816406 44.3359375,73.6816406 Z" id="Shape"></path>
            </g>
        </g>
    </g>
</svg>