<?xml version="1.0" encoding="UTF-8"?>
<svg width="51px" height="35px" viewBox="0 0 51 35" version="1.1" xmlns="http://www.w3.org/2000/svg" xmlns:xlink="http://www.w3.org/1999/xlink">
    <title>wechatpay</title>
    <defs>
        <polygon id="path-1" points="0 0 16.5573357 0 16.5573357 14.6085869 0 14.6085869"></polygon>
        <polygon id="path-3" points="0 0 7.35253327 0 7.35253327 6.02140627 0 6.02140627"></polygon>
        <polygon id="path-5" points="0 0 4.09378469 0 4.09378469 6.34013498 0 6.34013498"></polygon>
    </defs>
    <g id="wechatpay" stroke="none" stroke-width="1" fill="none" fill-rule="evenodd">
        <rect id="Rectangle" fill="#FFFFFF" fill-rule="nonzero" x="0" y="0" width="50.9838998" height="34.8837209" rx="5.5"></rect>
        <rect id="Rectangle" stroke="#E7E8ED" x="0" y="0" width="50.9838998" height="34.8837209" rx="5.5"></rect>
        <g id="全彩标志" transform="translate(4, 6)">
            <g id="编组" transform="translate(12.8322, 0)">
                <mask id="mask-2" fill="white">
                    <use xlink:href="#path-1"></use>
                </mask>
                <g id="Clip-2"></g>
                <path d="M6.02173742,9.24086429 C5.94689826,9.27828387 5.86278699,9.30030513 5.77354295,9.30030513 C5.56641069,9.30030513 5.38643245,9.18622509 5.29189006,9.01800255 L5.25596064,8.93902406 L3.7485808,5.63169626 C3.73235461,5.59560127 3.72208906,5.55487022 3.72208906,5.51513262 C3.72208906,5.3629707 3.84560679,5.23945298 3.99809985,5.23945298 C4.06035543,5.23945298 4.11731267,5.25998407 4.16334206,5.29425776 L5.94176549,6.56039722 C6.071575,6.64533635 6.22704838,6.69517393 6.39427747,6.69517393 C6.49362148,6.69517393 6.58866059,6.67696086 6.67707676,6.64450848 L15.0408493,2.92208827 C13.5417481,1.15492384 11.0725527,-0.00011590135 8.27850227,-0.00011590135 C3.70619402,-0.00011590135 0,3.08865507 0,6.89916031 C0,8.97776823 1.11480541,10.8494095 2.86044531,12.1142243 C3.00052037,12.2140651 3.09191687,12.3779827 3.09191687,12.563756 C3.09191687,12.6250181 3.07933329,12.6808164 3.06294153,12.7392638 C2.92369434,13.2594952 2.70050145,14.0919981 2.69007033,14.131239 C2.67268513,14.1961437 2.64536552,14.2645255 2.64536552,14.3329073 C2.64536552,14.4850692 2.76888325,14.6085869 2.92170746,14.6085869 C2.98131386,14.6085869 3.03032358,14.5864001 3.08098902,14.5574248 L4.89352056,13.5108356 C5.02962186,13.4321882 5.17400183,13.3836753 5.33295225,13.3836753 C5.41772581,13.3836753 5.49951905,13.39659 5.57634509,13.4201014 C6.42176265,13.6631631 7.33423742,13.7982709 8.27850227,13.7982709 C12.8508105,13.7982709 16.5573357,10.7096655 16.5573357,6.89916031 C16.5573357,5.74527958 16.2155923,4.65845607 15.6143954,3.70226993 L6.08217169,9.20576274 L6.02173742,9.24086429 Z" id="Fill-1" fill="#07C160" mask="url(#mask-2)"></path>
            </g>
            <g id="编组" transform="translate(0, 16.8479)">
                <mask id="mask-4" fill="white">
                    <use xlink:href="#path-3"></use>
                </mask>
                <g id="Clip-4"></g>
                <path d="M1.52766258,6.02140627 L-8.27866784e-05,0 L0.821823357,0 L1.53660354,3.04638419 C1.71525719,3.80586918 1.87602892,4.54730667 1.98332046,5.12797244 L2.00120238,5.12797244 C2.09938738,4.52942475 2.28698199,3.81464457 2.4926241,3.03744323 L3.29664832,0 L4.1096135,0 L4.84211004,3.05532515 C5.01182273,3.7790463 5.17276003,4.48471994 5.26200407,5.11903147 L5.27988599,5.11903147 C5.40489388,4.45789706 5.57477214,3.78798726 5.76236675,3.03744323 L6.55745001,0 L7.35253327,0 L5.64629983,6.02140627 L4.83316907,6.02140627 L4.07384966,2.89455343 C3.88625505,2.11718651 3.76108159,1.52757979 3.68077851,0.920091144 L3.66289659,0.920091144 C3.56454601,1.52757979 3.42165621,2.10841113 3.19829775,2.88561246 L2.34062776,6.02140627 L1.52766258,6.02140627 Z" id="Fill-3" fill="#4C4C4C" mask="url(#mask-4)"></path>
            </g>
            <path d="M10.3317444,20.2873612 C10.3406853,19.7871641 10.1262678,19.0097972 9.25071591,19.0097972 C8.44669169,19.0097972 8.10726631,19.7422937 8.04467958,20.2873612 L10.3317444,20.2873612 Z M8.03573861,20.8501451 C8.05362054,21.9043506 8.72369591,22.3421266 9.50983821,22.3421266 C10.0727876,22.3421266 10.421154,22.243776 10.7070992,22.1187681 L10.849989,22.681552 C10.5729847,22.8067254 10.090504,22.9585562 9.40271225,22.9585562 C8.08044342,22.9585562 7.2764192,22.0742289 7.2764192,20.778783 C7.2764192,19.4743961 8.05362054,18.4470134 9.31330264,18.4470134 C10.7249811,18.4470134 11.0910638,19.6888135 11.0910638,20.4838968 C11.0910638,20.6446685 11.0822884,20.760901 11.0644065,20.8501451 L8.03573861,20.8501451 Z" id="Fill-5" fill="#4C4C4C"></path>
            <path d="M16.3551209,22.6647297 C16.0781167,22.8076195 15.4808936,22.9586224 14.7482315,22.9586224 C13.0507735,22.9586224 11.7821504,21.8865349 11.7821504,19.9120727 C11.7821504,18.0271856 13.0597144,16.7585625 14.9270507,16.7585625 C15.6684882,16.7585625 16.1281199,16.9107244 16.3335964,17.0089094 L16.1597444,17.6607717 C15.8739648,17.5178819 15.4540707,17.410756 14.9537081,17.410756 C13.5421952,17.410756 12.6042221,18.3129652 12.6042221,19.8852498 C12.6042221,21.3595149 13.4527856,22.297488 14.9091688,22.297488 C15.391484,22.297488 15.8739648,22.1991374 16.1865673,22.0473067 L16.3551209,22.6647297 Z" id="Fill-7" fill="#4C4C4C"></path>
            <path d="M17.1037609,16.8623936 L17.8900688,16.8623936 L17.8900688,19.2242975 L17.9077851,19.2242975 C18.0329586,19.000939 18.2294941,18.7954625 18.4705689,18.670289 C18.7028684,18.5273992 18.9798726,18.4469306 19.2747587,18.4469306 C19.8554245,18.4469306 20.7844566,18.8044035 20.7844566,20.296385 L20.7844566,22.8692294 L19.9983143,22.8692294 L19.9983143,20.3766881 C19.9983143,19.6799554 19.739192,19.099124 18.9977545,19.099124 C18.4884509,19.099124 18.0953797,19.4564313 17.9435489,19.8852663 C17.8988441,19.9925579 17.8900688,20.1086248 17.8900688,20.2604556 L17.8900688,22.8692294 L17.1037609,22.8692294 L17.1037609,16.8623936 Z" id="Fill-9" fill="#4C4C4C"></path>
            <path d="M24.0547788,20.662567 C23.1971088,20.6446851 22.2232063,20.7966814 22.2232063,21.6363039 C22.2232063,22.1545485 22.5627972,22.386848 22.9558684,22.386848 C23.5275932,22.386848 23.894007,22.0293751 24.0190149,21.6631268 C24.0458378,21.5828237 24.0547788,21.4934141 24.0547788,21.4129455 L24.0547788,20.662567 Z M24.8230391,21.8328395 C24.8230391,22.2080287 24.8409211,22.5744426 24.8856259,22.8693287 L24.1797866,22.8693287 L24.1084245,22.3242612 L24.0816016,22.3242612 C23.8493022,22.6636866 23.3757624,22.9675137 22.7593328,22.9675137 C21.8839465,22.9675137 21.437064,22.3510841 21.437064,21.7257135 C21.437064,20.6804489 22.3662617,20.1087241 24.0368968,20.1174995 L24.0368968,20.0282555 C24.0368968,19.6709482 23.9385463,19.0187547 23.054219,19.0276957 C22.6432659,19.0276957 22.2232063,19.1437626 21.9195448,19.3492392 L21.7701976,18.8041717 C22.1033312,18.5940591 22.625384,18.4470299 23.1702859,18.4470299 C24.5014957,18.4470299 24.8230391,19.3492392 24.8230391,20.2158501 L24.8230391,21.8328395 Z" id="Fill-11" fill="#4C4C4C"></path>
            <path d="M26.7125126,17.7501648 L26.7125126,18.545248 L27.8380803,18.545248 L27.8380803,19.1437957 L26.7125126,19.1437957 L26.7125126,21.4666244 C26.7125126,22.0027509 26.8643434,22.3064124 27.3021193,22.3064124 C27.5165368,22.3064124 27.6350874,22.2883649 27.7104232,22.2661781 L27.8662278,22.8317767 C27.7198609,22.9009863 27.4003043,22.9586059 27.0966428,22.9586059 C26.7303945,22.9586059 26.4355084,22.833598 26.2479138,22.6279559 C26.0334963,22.3867155 25.9440867,22.0027509 25.9440867,21.4934472 L25.9440867,19.1437957 L25.2741769,19.1437957 L25.2741769,18.545248 L25.9440867,18.545248 L25.9440867,17.7501648 L26.7125126,17.7501648 Z" id="Fill-13" fill="#4C4C4C"></path>
            <path d="M31.0564786,19.8058408 C31.2308274,19.8561751 31.4490531,19.8738914 31.7063541,19.8738914 C32.6567451,19.8738914 33.2306224,19.4076369 33.2306224,18.5786111 C33.2306224,17.7752491 32.6574074,17.3826747 31.7979161,17.3826747 C31.452199,17.3826747 31.194898,17.414796 31.0564786,17.4445992 L31.0564786,19.8058408 Z M30.2734822,16.8838022 C30.6516518,16.8164138 31.1468817,16.7626025 31.78169,16.7626025 C32.5511093,16.7626025 33.120185,16.9405939 33.4824595,17.2669389 C33.8116193,17.5573546 34.0161024,17.9969519 34.0161024,18.5372177 C34.0161024,19.0870869 33.8521848,19.5210546 33.5443839,19.8354784 C33.1261456,20.2790495 32.4559047,20.5000899 31.6902935,20.5000899 C31.4525301,20.5000899 31.2374503,20.4913145 31.0564786,20.4436294 L31.0564786,22.8773921 L30.2734822,22.8773921 L30.2734822,16.8838022 Z" id="Fill-15" fill="#4C4C4C"></path>
            <path d="M36.7995561,20.6543215 C35.9428796,20.6361084 34.9618574,20.7900916 34.9618574,21.6320321 C34.9618574,22.1516013 35.3037664,22.390027 35.7009769,22.390027 C36.2743574,22.390027 36.6358041,22.029077 36.761971,21.6610075 C36.7894561,21.5768962 36.7995561,21.487321 36.7995561,21.411654 L36.7995561,20.6543215 Z M36.9227427,22.8774749 L36.8528707,22.3276058 L36.8293593,22.3276058 C36.5902714,22.6675279 36.1208709,22.9764878 35.4973217,22.9764878 C34.617796,22.9764878 34.167602,22.3521107 34.167602,21.7272368 C34.167602,20.6727001 35.1022636,20.0933589 36.7839922,20.1054458 L36.7839922,20.0128903 C36.7839922,19.65906 36.6844826,19.0038862 35.7927045,19.0085223 C35.3875465,19.0085223 34.9640099,19.1295564 34.658527,19.3330461 L34.4788799,18.8065228 C34.8394987,18.5738922 35.3663531,18.4248762 35.9157255,18.4248762 C37.2466042,18.4248762 37.5711279,19.3347018 37.5711279,20.2067767 L37.5711279,21.8356874 C37.5711279,22.2075651 37.5880164,22.5784494 37.6368606,22.8774749 L36.9227427,22.8774749 Z" id="Fill-17" fill="#4C4C4C"></path>
            <g id="编组" transform="translate(37.9062, 18.5239)">
                <mask id="mask-6" fill="white">
                    <use xlink:href="#path-5"></use>
                </mask>
                <g id="Clip-20"></g>
                <path d="M0.860981456,0 L1.81236596,2.57334111 C1.9146903,2.86110761 2.02098839,3.20251987 2.09235051,3.46180775 L2.11437177,3.46180775 C2.19202567,3.20533462 2.28838937,2.87186988 2.39220386,2.55579034 L3.25368204,0 L4.09380125,0 L2.90250095,3.1010234 C2.33822695,4.59830327 1.95045414,5.36027186 1.41134729,5.83182478 C1.01960073,6.17042229 0.63381481,6.30503343 0.440425129,6.34013498 L0.243558408,5.67833827 C0.44241201,5.61575155 0.69987858,5.49190267 0.9371452,5.29155891 C1.15056926,5.11853475 1.4156522,4.8118929 1.59943863,4.40954964 C1.63950738,4.32610067 1.66070077,4.26765327 1.66070077,4.21864356 C1.66070077,4.17410433 1.64778605,4.1115176 1.60556484,4.01548505 L0,0 L0.860981456,0 Z" id="Fill-19" fill="#4C4C4C" mask="url(#mask-6)"></path>
            </g>
        </g>
    </g>
</svg>