<?xml version="1.0" encoding="UTF-8"?>
<svg width="168px" height="17px" viewBox="0 0 168 17" version="1.1" xmlns="http://www.w3.org/2000/svg" xmlns:xlink="http://www.w3.org/1999/xlink">
    <title>编组</title>
    <g id="Symbols" stroke="none" stroke-width="1" fill="none" fill-rule="evenodd">
        <g id="secured-by-uniweb" transform="translate(-7.000000, -5.000000)" fill="#0059FF" fill-rule="nonzero">
            <g id="编组" transform="translate(7.109375, 5.718750)">
                <g id="secured-by" transform="translate(19.345625, 1.921250)">
                    <path d="M3.08,10.472 C2.20266667,10.472 1.48633333,10.269 0.931,9.863 C0.375666667,9.457 0.0653333333,8.904 0,8.204 L1.008,8.204 C1.05466667,8.63333333 1.25766667,8.981 1.617,9.247 C1.97633333,9.513 2.45933333,9.646 3.066,9.646 C3.598,9.646 4.01566667,9.52 4.319,9.268 C4.62233333,9.016 4.774,8.70333333 4.774,8.33 C4.774,8.06866667 4.69,7.854 4.522,7.686 C4.354,7.518 4.14166667,7.385 3.885,7.287 C3.62833333,7.189 3.28066667,7.084 2.842,6.972 C2.27266667,6.82266667 1.81066667,6.67333333 1.456,6.524 C1.10133333,6.37466667 0.800333333,6.153 0.553,5.859 C0.305666667,5.565 0.182,5.17066667 0.182,4.676 C0.182,4.30266667 0.294,3.95733333 0.518,3.64 C0.742,3.32266667 1.05933333,3.07066667 1.47,2.884 C1.88066667,2.69733333 2.34733333,2.604 2.87,2.604 C3.69133333,2.604 4.354,2.81166667 4.858,3.227 C5.362,3.64233333 5.63266667,4.214 5.67,4.942 L4.69,4.942 C4.662,4.494 4.487,4.13233333 4.165,3.857 C3.843,3.58166667 3.402,3.444 2.842,3.444 C2.34733333,3.444 1.946,3.56066667 1.638,3.794 C1.33,4.02733333 1.176,4.31666667 1.176,4.662 C1.176,4.96066667 1.267,5.20566667 1.449,5.397 C1.631,5.58833333 1.85733333,5.73766667 2.128,5.845 C2.39866667,5.95233333 2.76266667,6.07133333 3.22,6.202 C3.77066667,6.35133333 4.20933333,6.496 4.536,6.636 C4.86266667,6.776 5.14266667,6.98133333 5.376,7.252 C5.60933333,7.52266667 5.73066667,7.882 5.74,8.33 C5.74,8.74066667 5.628,9.107 5.404,9.429 C5.18,9.751 4.86733333,10.0053333 4.466,10.192 C4.06466667,10.3786667 3.60266667,10.472 3.08,10.472 Z" id="Path"></path>
                    <path d="M14.504,6.146 C14.504,6.482 14.4946667,6.73866667 14.476,6.916 L8.134,6.916 C8.162,7.49466667 8.302,7.98933333 8.554,8.4 C8.806,8.81066667 9.13733333,9.121 9.548,9.331 C9.95866667,9.541 10.4066667,9.646 10.892,9.646 C11.5266667,9.646 12.061,9.492 12.495,9.184 C12.929,8.876 13.216,8.46066667 13.356,7.938 L14.392,7.938 C14.2053333,8.68466667 13.8063333,9.29366667 13.195,9.765 C12.5836667,10.2363333 11.816,10.472 10.892,10.472 C10.1733333,10.472 9.52933333,10.311 8.96,9.989 C8.39066667,9.667 7.945,9.20966667 7.623,8.617 C7.301,8.02433333 7.14,7.33133333 7.14,6.538 C7.14,5.74466667 7.29866667,5.04933333 7.616,4.452 C7.93333333,3.85466667 8.37666667,3.39733333 8.946,3.08 C9.51533333,2.76266667 10.164,2.604 10.892,2.604 C11.62,2.604 12.257,2.76266667 12.803,3.08 C13.349,3.39733333 13.769,3.82433333 14.063,4.361 C14.357,4.89766667 14.504,5.49266667 14.504,6.146 Z M13.51,6.118 C13.5193333,5.54866667 13.405,5.06333333 13.167,4.662 C12.929,4.26066667 12.6046667,3.95733333 12.194,3.752 C11.7833333,3.54666667 11.3353333,3.444 10.85,3.444 C10.122,3.444 9.50133333,3.67733333 8.988,4.144 C8.47466667,4.61066667 8.19,5.26866667 8.134,6.118 L13.51,6.118 Z" id="Shape"></path>
                    <path d="M15.848,6.538 C15.848,5.74466667 16.0066667,5.05166667 16.324,4.459 C16.6413333,3.86633333 17.08,3.409 17.64,3.087 C18.2,2.765 18.8393333,2.604 19.558,2.604 C20.5006667,2.604 21.2776667,2.83733333 21.889,3.304 C22.5003333,3.77066667 22.8946667,4.40533333 23.072,5.208 L22.022,5.208 C21.8913333,4.65733333 21.609,4.22566667 21.175,3.913 C20.741,3.60033333 20.202,3.444 19.558,3.444 C19.0446667,3.444 18.5826667,3.56066667 18.172,3.794 C17.7613333,4.02733333 17.437,4.375 17.199,4.837 C16.961,5.299 16.842,5.866 16.842,6.538 C16.842,7.21 16.961,7.77933333 17.199,8.246 C17.437,8.71266667 17.7613333,9.06266667 18.172,9.296 C18.5826667,9.52933333 19.0446667,9.646 19.558,9.646 C20.202,9.646 20.741,9.48966667 21.175,9.177 C21.609,8.86433333 21.8913333,8.428 22.022,7.868 L23.072,7.868 C22.8946667,8.652 22.498,9.282 21.882,9.758 C21.266,10.234 20.4913333,10.472 19.558,10.472 C18.8393333,10.472 18.2,10.311 17.64,9.989 C17.08,9.667 16.6413333,9.20966667 16.324,8.617 C16.0066667,8.02433333 15.848,7.33133333 15.848,6.538 Z" id="Path"></path>
                    <path d="M31.5,2.716 L31.5,10.36 L30.52,10.36 L30.52,9.016 C30.296,9.492 29.9506667,9.856 29.484,10.108 C29.0173333,10.36 28.4946667,10.486 27.916,10.486 C27.0013333,10.486 26.2546667,10.2036667 25.676,9.639 C25.0973333,9.07433333 24.808,8.25533333 24.808,7.182 L24.808,2.716 L25.774,2.716 L25.774,7.07 C25.774,7.90066667 25.9816667,8.53533333 26.397,8.974 C26.8123333,9.41266667 27.3793333,9.632 28.098,9.632 C28.8353333,9.632 29.4233333,9.39866667 29.862,8.932 C30.3006667,8.46533333 30.52,7.77933333 30.52,6.874 L30.52,2.716 L31.5,2.716 Z" id="Path"></path>
                    <path d="M34.72,4.074 C34.9346667,3.598 35.2636667,3.22933333 35.707,2.968 C36.1503333,2.70666667 36.694,2.576 37.338,2.576 L37.338,3.598 L37.072,3.598 C36.3626667,3.598 35.7933333,3.78933333 35.364,4.172 C34.9346667,4.55466667 34.72,5.194 34.72,6.09 L34.72,10.36 L33.74,10.36 L33.74,2.716 L34.72,2.716 L34.72,4.074 Z" id="Path"></path>
                    <path d="M45.724,6.146 C45.724,6.482 45.7146667,6.73866667 45.696,6.916 L39.354,6.916 C39.382,7.49466667 39.522,7.98933333 39.774,8.4 C40.026,8.81066667 40.3573333,9.121 40.768,9.331 C41.1786667,9.541 41.6266667,9.646 42.112,9.646 C42.7466667,9.646 43.281,9.492 43.715,9.184 C44.149,8.876 44.436,8.46066667 44.576,7.938 L45.612,7.938 C45.4253333,8.68466667 45.0263333,9.29366667 44.415,9.765 C43.8036667,10.2363333 43.036,10.472 42.112,10.472 C41.3933333,10.472 40.7493333,10.311 40.18,9.989 C39.6106667,9.667 39.165,9.20966667 38.843,8.617 C38.521,8.02433333 38.36,7.33133333 38.36,6.538 C38.36,5.74466667 38.5186667,5.04933333 38.836,4.452 C39.1533333,3.85466667 39.5966667,3.39733333 40.166,3.08 C40.7353333,2.76266667 41.384,2.604 42.112,2.604 C42.84,2.604 43.477,2.76266667 44.023,3.08 C44.569,3.39733333 44.989,3.82433333 45.283,4.361 C45.577,4.89766667 45.724,5.49266667 45.724,6.146 Z M44.73,6.118 C44.7393333,5.54866667 44.625,5.06333333 44.387,4.662 C44.149,4.26066667 43.8246667,3.95733333 43.414,3.752 C43.0033333,3.54666667 42.5553333,3.444 42.07,3.444 C41.342,3.444 40.7213333,3.67733333 40.208,4.144 C39.6946667,4.61066667 39.41,5.26866667 39.354,6.118 L44.73,6.118 Z" id="Shape"></path>
                    <path d="M47.068,6.524 C47.068,5.74 47.2266667,5.05166667 47.544,4.459 C47.8613333,3.86633333 48.2976667,3.409 48.853,3.087 C49.4083333,2.765 50.036,2.604 50.736,2.604 C51.408,2.604 52.0146667,2.76733333 52.556,3.094 C53.0973333,3.42066667 53.494,3.84533333 53.746,4.368 L53.746,0 L54.726,0 L54.726,10.36 L53.746,10.36 L53.746,8.652 C53.5126667,9.184 53.13,9.62033333 52.598,9.961 C52.066,10.3016667 51.4406667,10.472 50.722,10.472 C50.022,10.472 49.3943333,10.3086667 48.839,9.982 C48.2836667,9.65533333 47.8496667,9.19333333 47.537,8.596 C47.2243333,7.99866667 47.068,7.308 47.068,6.524 Z M53.746,6.538 C53.746,5.922 53.62,5.38066667 53.368,4.914 C53.116,4.44733333 52.773,4.088 52.339,3.836 C51.905,3.584 51.4266667,3.458 50.904,3.458 C50.3626667,3.458 49.8773333,3.57933333 49.448,3.822 C49.0186667,4.06466667 48.6803333,4.417 48.433,4.879 C48.1856667,5.341 48.062,5.88933333 48.062,6.524 C48.062,7.14933333 48.1856667,7.69766667 48.433,8.169 C48.6803333,8.64033333 49.0186667,8.99966667 49.448,9.247 C49.8773333,9.49433333 50.3626667,9.618 50.904,9.618 C51.4266667,9.618 51.905,9.492 52.339,9.24 C52.773,8.988 53.116,8.62866667 53.368,8.162 C53.62,7.69533333 53.746,7.154 53.746,6.538 Z" id="Shape"></path>
                    <path d="M61.768,4.41 C62.02,3.878 62.4096667,3.444 62.937,3.108 C63.4643333,2.772 64.0873333,2.604 64.806,2.604 C65.506,2.604 66.1313333,2.765 66.682,3.087 C67.2326667,3.409 67.6643333,3.86633333 67.977,4.459 C68.2896667,5.05166667 68.446,5.74 68.446,6.524 C68.446,7.308 68.2896667,7.99866667 67.977,8.596 C67.6643333,9.19333333 67.2303333,9.65533333 66.675,9.982 C66.1196667,10.3086667 65.4966667,10.472 64.806,10.472 C64.078,10.472 63.4503333,10.3063333 62.923,9.975 C62.3956667,9.64366667 62.0106667,9.212 61.768,8.68 L61.768,10.36 L60.802,10.36 L60.802,0 L61.768,0 L61.768,4.41 Z M67.452,6.524 C67.452,5.88933333 67.3283333,5.341 67.081,4.879 C66.8336667,4.417 66.4953333,4.06466667 66.066,3.822 C65.6366667,3.57933333 65.1513333,3.458 64.61,3.458 C64.0873333,3.458 63.609,3.584 63.175,3.836 C62.741,4.088 62.398,4.44733333 62.146,4.914 C61.894,5.38066667 61.768,5.922 61.768,6.538 C61.768,7.154 61.894,7.69533333 62.146,8.162 C62.398,8.62866667 62.741,8.988 63.175,9.24 C63.609,9.492 64.0873333,9.618 64.61,9.618 C65.1513333,9.618 65.6366667,9.49433333 66.066,9.247 C66.4953333,8.99966667 66.8336667,8.64033333 67.081,8.169 C67.3283333,7.69766667 67.452,7.14933333 67.452,6.524 Z" id="Shape"></path>
                    <polygon id="Path" points="76.552 2.716 72.016 13.958 70.994 13.958 72.478 10.318 69.342 2.716 70.42 2.716 73.024 9.24 75.544 2.716"></polygon>
                </g>
                <g id="􀞚">
                    <path d="M6.390625,15.53125 C6.453125,15.53125 6.52994792,15.5195312 6.62109375,15.4960938 C6.71223958,15.4726562 6.80729167,15.4348958 6.90625,15.3828125 C8.02083333,14.7994792 8.95442708,14.2734375 9.70703125,13.8046875 C10.4596354,13.3359375 11.0611979,12.8723958 11.5117188,12.4140625 C11.9622396,11.9557292 12.2864583,11.4622396 12.484375,10.9335938 C12.6822917,10.4049479 12.78125,9.7890625 12.78125,9.0859375 L12.78125,3.1953125 C12.78125,2.79427083 12.6966146,2.50520833 12.5273438,2.328125 C12.3580729,2.15104167 12.109375,1.99479167 11.78125,1.859375 C11.5989583,1.78125 11.3489583,1.68229167 11.03125,1.5625 C10.7135417,1.44270833 10.3632812,1.3125 9.98046875,1.171875 C9.59765625,1.03125 9.21484375,0.890625 8.83203125,0.75 C8.44921875,0.609375 8.10026042,0.483072917 7.78515625,0.37109375 C7.47005208,0.259114583 7.22135417,0.171875 7.0390625,0.109375 C6.93489583,0.078125 6.828125,0.0520833333 6.71875,0.03125 C6.609375,0.0104166667 6.5,0 6.390625,0 C6.28125,0 6.17317708,0.0104166667 6.06640625,0.03125 C5.95963542,0.0520833333 5.85416667,0.078125 5.75,0.109375 C5.56770833,0.171875 5.31770833,0.259114583 5,0.37109375 C4.68229167,0.483072917 4.33203125,0.608072917 3.94921875,0.74609375 C3.56640625,0.884114583 3.18359375,1.02473958 2.80078125,1.16796875 C2.41796875,1.31119792 2.06770833,1.44401042 1.75,1.56640625 C1.43229167,1.68880208 1.18229167,1.78645833 1,1.859375 C0.677083333,1.98958333 0.4296875,2.14453125 0.2578125,2.32421875 C0.0859375,2.50390625 0,2.79427083 0,3.1953125 L0,9.0859375 C0,9.7890625 0.102864583,10.3997396 0.30859375,10.9179688 C0.514322917,11.4361979 0.845052083,11.9179688 1.30078125,12.3632812 C1.75651042,12.8085938 2.36067708,13.2682292 3.11328125,13.7421875 C3.86588542,14.2161458 4.78645833,14.7630208 5.875,15.3828125 C5.97395833,15.4348958 6.06901042,15.4726562 6.16015625,15.4960938 C6.25130208,15.5195312 6.328125,15.53125 6.390625,15.53125 Z M3.484375,10.6640625 L3.484375,7.4609375 C3.484375,6.90364583 3.71875,6.609375 4.1875,6.578125 L4.1875,5.6328125 C4.1875,4.88802083 4.390625,4.2890625 4.796875,3.8359375 C5.203125,3.3828125 5.734375,3.15625 6.390625,3.15625 C7.046875,3.15625 7.578125,3.3828125 7.984375,3.8359375 C8.390625,4.2890625 8.59375,4.88802083 8.59375,5.6328125 L8.59375,6.578125 C9.06770833,6.609375 9.3046875,6.90364583 9.3046875,7.4609375 L9.3046875,10.6640625 C9.3046875,11.2526042 9.02864583,11.546875 8.4765625,11.546875 L4.3046875,11.546875 C3.7578125,11.546875 3.484375,11.2526042 3.484375,10.6640625 Z M5.03125,6.5703125 L7.75,6.5703125 L7.75,5.5390625 C7.75,5.0703125 7.62630208,4.69140625 7.37890625,4.40234375 C7.13151042,4.11328125 6.80208333,3.96875 6.390625,3.96875 C5.984375,3.96875 5.65625,4.11328125 5.40625,4.40234375 C5.15625,4.69140625 5.03125,5.0703125 5.03125,5.5390625 L5.03125,6.5703125 Z" id="Shape"></path>
                </g>
                <g id="UNIWEB" transform="translate(101.690625, 2.056377)">
                    <path d="M8.033218,1.52587891e-06 L8.033218,7.55384064 C8.033218,8.55617676 7.72815895,9.36966743 7.13256798,9.97978516 C6.79845581,10.3284241 6.40623703,10.5753765 5.97043877,10.7351692 L4.29987831,12.4057297 C4.45967102,12.420256 4.61946373,12.420256 4.79378281,12.420256 C5.70895958,12.420256 6.52244987,12.2168835 7.24878044,11.8101383 C7.97511101,11.4179199 8.54164886,10.8513821 8.96292076,10.1250515 C9.36966591,9.39872093 9.58756523,8.58523064 9.58756523,7.67005386 L9.58756523,1.52587891e-06 L8.033218,1.52587891e-06 Z M1.55434761,7.55384102 L1.55434761,1.90734863e-06 L0,1.90734863e-06 L0,7.67005424 C0,9.0500824 0.450325012,10.1831585 1.36550179,11.0838085 C1.80130043,11.5196072 2.29520531,11.8391926 2.86174316,12.0716183 L4.08197861,10.8513828 C3.44280777,10.73517 2.90532303,10.4446377 2.45499802,9.9797863 C1.84488029,9.36966858 1.55434799,8.5561779 1.55434799,7.55384178 L1.55434761,7.55384102 Z" id="Shape"></path>
                    <path d="M13.7800285,1.52587891e-06 L12.4000004,1.52587891e-06 L12.4000004,12.2168839 L13.8962418,12.2168839 L13.8962418,3.32659607 L13.7945557,0.0145278931 L13.7800285,1.52587891e-06 Z M20.6365906,1.14440918e-06 L20.6365906,9.4132473 L14.5644657,1.07497063 L14.6952053,3.7769207 L20.8399632,12.2168835 L22.132832,12.2168835 L22.132832,1.14440918e-06 L20.6365906,1.14440918e-06 Z" id="Shape"></path>
                    <path d="M25.1000004,12.2168835 L26.6252949,12.2168835 L26.6252949,6.08665237 L25.1000004,7.19067497 L25.1000004,12.2168835 Z M25.1000004,1.14440918e-06 L25.1000004,6.23191872 L26.6252949,5.12789612 L26.6252949,1.14440918e-06 L25.1000004,1.14440918e-06 Z" id="Shape"></path>
                    <path d="M33.1985168,9.66019974 L30.176981,1.52587891e-06 L28.5500004,1.52587891e-06 L32.486713,12.2168839 L33.8376881,12.2168839 L33.2130436,9.7037796 L33.1985168,9.66019974 Z M44.0498978,1.52587891e-06 L41.0864685,9.7037796 L37.4112354,0.246953964 L36.786591,0.246953964 L33.9829544,7.65552711 L34.6657051,10.023365 L37.1061764,3.54449539 L40.461824,12.2168839 L41.8127991,12.2168839 L45.662352,1.52587891e-06 L44.0498978,1.52587891e-06 Z" id="Shape"></path>
                    <path d="M49.1252949,10.7496956 L49.1252949,1.46718941 L54.5146687,1.46718941 L54.5146687,1.52587891e-06 L47.6000004,1.52587891e-06 L47.6000004,12.2168839 L54.7035145,12.2168839 L54.7035145,10.749696 L49.1252949,10.7496956 Z M54.0643436,6.63866425 L54.0643436,5.2295826 L49.8952053,5.2295826 L49.8952053,6.63866425 L54.0643436,6.63866425 Z" id="Shape"></path>
                    <path d="M65.1663242,7.04540901 C64.8467388,6.50792427 64.3964138,6.13023224 63.8444027,5.8832798 C64.2947277,5.60727386 64.6578934,5.22958183 64.9338989,4.72115059 C65.1953781,4.21271896 65.3406445,3.68976097 65.3406445,3.12322311 C65.3406445,2.23709946 65.0065323,1.49624214 64.3673611,0.900650787 C63.7136635,0.305059433 62.8856468,7.62939454e-07 61.8978371,7.62939454e-07 L59.3702061,7.62939454e-07 L59.3702061,1.51076851 L61.868784,1.51076851 C62.4062687,1.51076851 62.8565937,1.68508759 63.219759,2.0337265 C63.597451,2.38236542 63.7717701,2.81816406 63.7717701,3.34112206 C63.7717701,3.84955368 63.597451,4.27082558 63.2342854,4.63399124 C62.8565933,4.98263016 62.4062683,5.15694923 61.8687836,5.15694923 L59.3702061,5.15694923 L59.3702061,6.66771698 L61.9414169,6.66771698 C62.5515347,6.66771698 63.0599663,6.85656281 63.4667114,7.23425484 C63.8734566,7.62647324 64.0768291,8.10585136 64.0768291,8.67238922 C64.0768291,9.25345383 63.8734566,9.73283195 63.4667114,10.1250507 C63.074493,10.5027428 62.5660614,10.6915886 61.9414169,10.6915886 L59.3702061,10.6915886 L59.3702061,12.2168831 L61.97047,12.2168831 C63.0163864,12.2168831 63.8879833,11.8827709 64.5997875,11.2435997 C65.3115913,10.5899021 65.6602303,9.79093819 65.6602303,8.8467083 C65.6602303,8.17848396 65.5004375,7.58289261 65.1663254,7.04540787 L65.1663242,7.04540901 Z M58.6002956,12.2168823 L58.6002956,0 L57.0750011,0 L57.0750011,12.2168823 L58.6002956,12.2168823 Z" id="Shape"></path>
                </g>
            </g>
        </g>
    </g>
</svg>