<svg xmlns="http://www.w3.org/2000/svg" width="23.027" height="17.979"><path d="M4.639 5.918h6.298a.688.688 0 0 0 .684-.693.671.671 0 0 0-.684-.674H4.64a.657.657 0 0 0-.674.674c0 .38.283.693.674.693Zm0 2.607h4.609a.68.68 0 0 0 .684-.683.68.68 0 0 0-.684-.684h-4.61a.665.665 0 0 0-.673.684c0 .38.283.683.674.683Zm12.09.264a2.336 2.336 0 0 0 2.334-2.344 2.336 2.336 0 0 0-2.334-2.343 2.344 2.344 0 0 0 0 4.687ZM3.066 17.98h16.895c2.05 0 3.066-1.006 3.066-3.018V3.027C23.027 1.016 22.012 0 19.961 0H3.066C1.026 0 0 1.016 0 3.027v11.934c0 2.012 1.025 3.018 3.066 3.018Zm.02-1.573c-.977 0-1.514-.517-1.514-1.533V3.115c0-1.015.537-1.543 1.514-1.543H19.94c.967 0 1.514.528 1.514 1.543v11.758c0 1.016-.547 1.533-1.514 1.533Z" fill="#0058FF" fill-opacity=".85"/></svg>