<svg xmlns="http://www.w3.org/2000/svg" width="16.426" height="20.947"><g fill="#0059FF"><path d="M0 17.88c0 2.042 1.006 3.058 3.027 3.058h10.371c2.022 0 3.028-1.016 3.028-3.057V3.066C16.426 1.036 15.42 0 13.398 0H3.028C1.005 0 0 1.035 0 3.066Zm1.572-.028V3.096c0-.977.518-1.524 1.533-1.524H13.32c1.016 0 1.534.547 1.534 1.524v14.756c0 .976-.518 1.513-1.534 1.513H3.105c-1.015 0-1.533-.537-1.533-1.513Z"/><path d="M3.965 5.352a.9.9 0 0 0 .908-.909c0-.498-.4-.908-.908-.908a.926.926 0 0 0-.908.908c0 .498.42.909.908.909Zm0 2.988c.508 0 .908-.41.908-.908 0-.508-.4-.899-.908-.899-.498 0-.908.4-.908.899 0 .498.41.908.908.908Zm0 3.125c.508 0 .908-.41.908-.908a.9.9 0 0 0-.908-.909.92.92 0 0 0-.908.909c0 .488.42.908.908.908Zm2.754-6.406h6.045a.61.61 0 0 0 0-1.221H6.719a.61.61 0 0 0 0 1.22Zm0 2.978h6.045a.596.596 0 0 0 .605-.605.596.596 0 0 0-.605-.606H6.719a.596.596 0 0 0-.606.606c0 .341.264.605.606.605Zm0 3.125h6.045a.608.608 0 0 0 .605-.605.602.602 0 0 0-.605-.606H6.719a.602.602 0 0 0-.606.606c0 .332.274.605.606.605Z"/></g></svg>