<svg xmlns="http://www.w3.org/2000/svg" width="19.463" height="17.998"><path d="M3.066 17.998h13.34c2.041 0 3.057-1.016 3.057-3.027V3.047c0-2.012-1.016-3.027-3.057-3.027H3.066C1.026.02 0 1.025 0 3.047V14.97c0 2.021 1.025 3.027 3.066 3.027Zm-.146-1.572c-.87 0-1.348-.46-1.348-1.367v-9.21c0-.898.479-1.367 1.348-1.367h13.613c.87 0 1.358.47 1.358 1.368v9.209c0 .908-.489 1.367-1.358 1.367Zm4.912-8.438h.576c.342 0 .45-.097.45-.44v-.575c0-.342-.108-.45-.45-.45h-.576c-.342 0-.459.108-.459.45v.576c0 .342.117.44.459.44Zm3.242 0h.576c.342 0 .46-.097.46-.44v-.575c0-.342-.118-.45-.46-.45h-.576c-.342 0-.459.108-.459.45v.576c0 .342.117.44.46.44Zm3.242 0h.577c.341 0 .459-.097.459-.44v-.575c0-.342-.118-.45-.46-.45h-.576c-.341 0-.449.108-.449.45v.576c0 .342.108.44.45.44ZM4.59 11.182h.566c.352 0 .46-.098.46-.44v-.576c0-.342-.108-.44-.46-.44H4.59c-.352 0-.46.098-.46.44v.576c0 .342.108.44.46.44Zm3.242 0h.576c.342 0 .45-.098.45-.44v-.576c0-.342-.108-.44-.45-.44h-.576c-.342 0-.459.098-.459.44v.576c0 .342.117.44.459.44Zm3.242 0h.576c.342 0 .46-.098.46-.44v-.576c0-.342-.118-.44-.46-.44h-.576c-.342 0-.459.098-.459.44v.576c0 .342.117.44.46.44Zm3.242 0h.577c.341 0 .459-.098.459-.44v-.576c0-.342-.118-.44-.46-.44h-.576c-.341 0-.449.098-.449.44v.576c0 .342.108.44.45.44ZM4.59 14.385h.566c.352 0 .46-.108.46-.45v-.576c0-.341-.108-.44-.46-.44H4.59c-.352 0-.46.099-.46.44v.576c0 .342.108.45.46.45Zm3.242 0h.576c.342 0 .45-.108.45-.45v-.576c0-.341-.108-.44-.45-.44h-.576c-.342 0-.459.099-.459.44v.576c0 .342.117.45.459.45Zm3.242 0h.576c.342 0 .46-.108.46-.45v-.576c0-.341-.118-.44-.46-.44h-.576c-.342 0-.459.099-.459.44v.576c0 .342.117.45.46.45Z" fill="#0059FF" fill-opacity=".85"/></svg>