<?xml version="1.0" encoding="UTF-8"?>
<svg width="12px" height="19px" viewBox="0 0 12 19" version="1.1" xmlns="http://www.w3.org/2000/svg" xmlns:xlink="http://www.w3.org/1999/xlink">
    <title>􀖈</title>
    <g id="Symbols" stroke="none" stroke-width="1" fill="none" fill-rule="evenodd">
        <g id="history" transform="translate(-32.000000, -130.000000)" fill="#0059FF" fill-rule="nonzero">
            <g id="􀖈" transform="translate(32.277344, 130.964844)">
                <path d="M1.59179687,17.9589844 L9.85351562,17.9589844 C10.8398438,17.9589844 11.4453125,17.4023438 11.4453125,16.3574219 L11.4453125,16.1621094 C11.4453125,13.8085938 8.95507812,11.3085938 7.58789062,9.95117188 C6.97265625,9.3359375 6.92382812,8.65234375 7.58789062,7.98828125 C8.95507812,6.640625 11.4453125,4.15039062 11.4453125,1.77734375 L11.4453125,1.61132812 C11.4453125,0.56640625 10.8398438,0 9.85351562,0 L1.59179687,0 C0.60546875,0 0,0.56640625 0,1.61132812 L0,1.77734375 C0,4.15039062 2.5,6.640625 3.85742188,7.98828125 C4.53125,8.65234375 4.48242188,9.3359375 3.85742188,9.95117188 C2.5,11.3085938 0,13.8085938 0,16.1621094 L0,16.3574219 C0,17.4023438 0.60546875,17.9589844 1.59179687,17.9589844 Z M6.39648438,7.4609375 C5.90820312,7.86132812 5.53710938,7.86132812 5.04882812,7.4609375 C4.31640625,6.8359375 2.23632812,4.69726562 1.6015625,3.57421875 C1.43554687,3.26171875 1.5234375,3.01757812 1.82617187,3.01757812 L9.61914062,3.01757812 C9.921875,3.01757812 10.0195312,3.26171875 9.84375,3.57421875 C9.20898438,4.69726562 7.13867188,6.8359375 6.39648438,7.4609375 Z" id="Shape"></path>
            </g>
        </g>
    </g>
</svg>