<?xml version="1.0" encoding="UTF-8"?>
<svg width="21px" height="15px" viewBox="0 0 21 15" version="1.1" xmlns="http://www.w3.org/2000/svg" xmlns:xlink="http://www.w3.org/1999/xlink">
    <title>􀋰</title>
    <g id="Page-1" stroke="none" stroke-width="1" fill="none" fill-rule="evenodd">
        <g id="login-page" transform="translate(-296.000000, -547.000000)" fill="#81899C" fill-rule="nonzero">
            <g id="􀋰" transform="translate(296.601562, 547.710938)">
                <path d="M10.0390625,13.265625 C10.7161458,13.265625 11.3671875,13.2083333 11.9921875,13.09375 C12.6171875,12.9791667 13.2109375,12.8203125 13.7734375,12.6171875 L11.78125,10.625 C11.5208333,10.7604167 11.2434896,10.8632812 10.9492188,10.9335938 C10.6549479,11.0039062 10.3515625,11.0390625 10.0390625,11.0390625 C9.27864583,11.0390625 8.58984375,10.8528646 7.97265625,10.4804688 C7.35546875,10.1080729 6.86328125,9.61458333 6.49609375,9 C6.12890625,8.38541667 5.94270833,7.70572917 5.9375,6.9609375 C5.9375,6.64322917 5.97265625,6.3359375 6.04296875,6.0390625 C6.11328125,5.7421875 6.21614583,5.4609375 6.3515625,5.1953125 L3.75,2.578125 C2.97916667,3.06770833 2.3125,3.59635417 1.75,4.1640625 C1.1875,4.73177083 0.755208333,5.265625 0.453125,5.765625 C0.151041667,6.265625 0,6.6640625 0,6.9609375 C0,7.2109375 0.110677083,7.53776042 0.33203125,7.94140625 C0.553385417,8.34505208 0.873697917,8.78385417 1.29296875,9.2578125 C1.71223958,9.73177083 2.21875,10.2044271 2.8125,10.6757812 C3.40625,11.1471354 4.07552083,11.578125 4.8203125,11.96875 C5.56510417,12.359375 6.37630208,12.6731771 7.25390625,12.9101562 C8.13151042,13.1471354 9.05989583,13.265625 10.0390625,13.265625 Z M16.5234375,11.234375 C17.2421875,10.7552083 17.8658854,10.2408854 18.3945312,9.69140625 C18.9231771,9.14192708 19.3333333,8.62239583 19.625,8.1328125 C19.9166667,7.64322917 20.0625,7.25260417 20.0625,6.9609375 C20.0625,6.7109375 19.953125,6.38541667 19.734375,5.984375 C19.515625,5.58333333 19.2005208,5.14453125 18.7890625,4.66796875 C18.3776042,4.19140625 17.8763021,3.71744792 17.2851562,3.24609375 C16.6940104,2.77473958 16.0247396,2.34375 15.2773438,1.953125 C14.5299479,1.5625 13.7174479,1.24869792 12.8398438,1.01171875 C11.9622396,0.774739583 11.0286458,0.65625 10.0390625,0.65625 C9.40885417,0.65625 8.80078125,0.705729167 8.21484375,0.8046875 C7.62890625,0.903645833 7.06770833,1.04427083 6.53125,1.2265625 L8.5078125,3.1875 C8.7421875,3.09375 8.98697917,3.01953125 9.2421875,2.96484375 C9.49739583,2.91015625 9.76302083,2.8828125 10.0390625,2.8828125 C10.7890625,2.8828125 11.4739583,3.06510417 12.09375,3.4296875 C12.7135417,3.79427083 13.2083333,4.28515625 13.578125,4.90234375 C13.9479167,5.51953125 14.1328125,6.20572917 14.1328125,6.9609375 C14.1328125,7.23177083 14.1041667,7.49609375 14.046875,7.75390625 C13.9895833,8.01171875 13.90625,8.2578125 13.796875,8.4921875 L16.5234375,11.234375 Z M7.6640625,6.8203125 C7.6640625,7.24739583 7.77083333,7.63932292 7.984375,7.99609375 C8.19791667,8.35286458 8.484375,8.63671875 8.84375,8.84765625 C9.203125,9.05859375 9.59895833,9.1640625 10.03125,9.1640625 C10.078125,9.1640625 10.1236979,9.16276042 10.1679688,9.16015625 C10.2122396,9.15755208 10.2604167,9.15364583 10.3125,9.1484375 L7.6796875,6.5234375 C7.6796875,6.57552083 7.67708333,6.62630208 7.671875,6.67578125 C7.66666667,6.72526042 7.6640625,6.7734375 7.6640625,6.8203125 Z M12.3984375,6.8046875 C12.3984375,6.37239583 12.2929688,5.97916667 12.0820312,5.625 C11.8710938,5.27083333 11.5885417,4.98958333 11.234375,4.78125 C10.8802083,4.57291667 10.484375,4.46875 10.046875,4.46875 C10.0052083,4.46875 9.96223958,4.46875 9.91796875,4.46875 C9.87369792,4.46875 9.83072917,4.47135417 9.7890625,4.4765625 L12.3828125,7.0703125 C12.3880208,7.02864583 12.3919271,6.98567708 12.3945312,6.94140625 C12.3971354,6.89713542 12.3984375,6.8515625 12.3984375,6.8046875 Z M15.828125,13.4296875 C15.9427083,13.5442708 16.078125,13.6028646 16.234375,13.6055519 C16.390625,13.6080729 16.5286458,13.5494792 16.6484375,13.4296875 C16.7682292,13.3046875 16.8268229,13.1653646 16.8243019,13.0117188 C16.8216146,12.8580729 16.7630208,12.7239583 16.6484375,12.609375 L4.2109375,0.1796875 C4.09114583,0.0598958333 3.95052083,0 3.7890625,0 C3.62760417,0 3.4921875,0.0598958333 3.3828125,0.1796875 C3.26822917,0.283854167 3.2109375,0.41796875 3.2109375,0.58203125 C3.2109375,0.74609375 3.26822917,0.8828125 3.3828125,0.9921875 L15.828125,13.4296875 Z" id="Shape"></path>
            </g>
        </g>
    </g>
</svg>