<?xml version="1.0" encoding="UTF-8"?>
<svg width="21px" height="13px" viewBox="0 0 21 13" version="1.1" xmlns="http://www.w3.org/2000/svg" xmlns:xlink="http://www.w3.org/1999/xlink">
    <title>􀋮</title>
    <g id="Page-1" stroke="none" stroke-width="1" fill="none" fill-rule="evenodd">
        <g id="login-page" transform="translate(-296.000000, -548.000000)" fill="#81899C" fill-rule="nonzero">
            <g id="􀋮" transform="translate(296.598022, 548.366455)">
                <path d="M10.0400391,12.6137695 C11.0314128,12.6137695 11.9675496,12.4946696 12.8484497,12.2564697 C13.7293498,12.0182699 14.5428263,11.7041423 15.2888794,11.3140869 C16.0349325,10.9240316 16.7022298,10.4935099 17.2907715,10.022522 C17.8793132,9.55153402 18.3802287,9.07816569 18.7935181,8.60241699 C19.2068075,8.12666829 19.5224406,7.68752035 19.7404175,7.28497314 C19.9583944,6.88242594 20.0673828,6.55615234 20.0673828,6.30615234 C20.0673828,6.05615234 19.9583944,5.73000081 19.7404175,5.32769775 C19.5224406,4.92539469 19.2068075,4.48638916 18.7935181,4.01068115 C18.3802287,3.53497314 17.8781331,3.06160482 17.2872314,2.59057617 C16.6963298,2.11954753 16.0278524,1.68902588 15.2817993,1.29901123 C14.5357463,0.908996582 13.7234497,0.594991048 12.8449097,0.356994629 C11.9663696,0.11899821 11.0314128,0 10.0400391,0 C9.06005859,0 8.13222249,0.11899821 7.25653076,0.356994629 C6.38083903,0.594991048 5.57010905,0.908996582 4.82434082,1.29901123 C4.07857259,1.68902588 3.40893555,2.11954753 2.81542969,2.59057617 C2.22192383,3.06160482 1.71590169,3.53497314 1.29736328,4.01068115 C0.87882487,4.48638916 0.557963053,4.92539469 0.334777832,5.32769775 C0.111592611,5.73000081 0,6.05615234 0,6.30615234 C0,6.55615234 0.111592611,6.88242594 0.334777832,7.28497314 C0.557963053,7.68752035 0.87882487,8.12666829 1.29736328,8.60241699 C1.71590169,9.07816569 2.22192383,9.55153402 2.81542969,10.022522 C3.40893555,10.4935099 4.07857259,10.9240316 4.82434082,11.3140869 C5.57010905,11.7041423 6.38083903,12.0182699 7.25653076,12.2564697 C8.13222249,12.4946696 9.06005859,12.6137695 10.0400391,12.6137695 Z M10.0415039,10.3834229 C9.27921549,10.3834229 8.5896403,10.1976725 7.97277832,9.82617188 C7.35591634,9.45467122 6.86409505,8.96073405 6.49731445,8.34436035 C6.13053385,7.72798665 5.94478353,7.04882812 5.94006348,6.30688477 C5.94006348,5.54882812 6.12345378,4.86175537 6.49023438,4.2456665 C6.85701497,3.62957764 7.35001628,3.13968913 7.96923828,2.77600098 C8.58846029,2.41231283 9.27921549,2.23046875 10.0415039,2.23046875 C10.7943522,2.23046875 11.4803874,2.41231283 12.0996094,2.77600098 C12.7188314,3.13968913 13.2128906,3.62969971 13.5817871,4.24603271 C13.9506836,4.86236572 14.1351318,5.54931641 14.1351318,6.30688477 C14.1351318,6.86336263 14.0293579,7.38661702 13.8178101,7.87664795 C13.6062622,8.36667887 13.3121541,8.79990641 12.9354858,9.17633057 C12.5588175,9.55275472 12.1240438,9.84804281 11.6311646,10.0621948 C11.1382853,10.2763468 10.6083984,10.3834229 10.0415039,10.3834229 Z M10.0400391,7.80822754 C10.4545085,7.80822754 10.8096313,7.66046143 11.1054077,7.3649292 C11.4011841,7.06939697 11.5490723,6.71700033 11.5490723,6.30773926 C11.5490723,5.89424642 11.4011841,5.54064941 11.1054077,5.24694824 C10.8096313,4.95324707 10.4545085,4.80639648 10.0400391,4.80639648 C9.62605794,4.80639648 9.27024333,4.95324707 8.97259521,5.24694824 C8.6749471,5.54064941 8.52612305,5.89424642 8.52612305,6.30773926 C8.52612305,6.71700033 8.6749471,7.06939697 8.97259521,7.3649292 C9.27024333,7.66046143 9.62605794,7.80822754 10.0400391,7.80822754 Z" id="Shape"></path>
            </g>
        </g>
    </g>
</svg>